<svg width="226" height="53" viewBox="0 0 226 53" fill="none" xmlns="http://www.w3.org/2000/svg">
<path d="M34.2243 24.8519C34.2486 23.1103 34.7492 21.4026 35.6797 19.8878C36.6101 18.373 37.9401 17.1003 39.5459 16.1881C38.5258 14.8419 37.18 13.734 35.6154 12.9525C34.0509 12.1709 32.3107 11.7372 30.533 11.6858C26.7409 11.318 23.0646 13.7825 21.1322 13.7825C19.1624 13.7825 16.1872 11.7223 12.9834 11.7832C10.9111 11.8451 8.89144 12.4019 7.12127 13.3995C5.3511 14.397 3.89076 15.8012 2.88253 17.4753C-1.48488 24.4622 1.77282 34.7306 5.95643 40.3783C8.04958 43.1438 10.4959 46.233 13.6968 46.1234C16.8291 46.0034 17.9989 44.2778 21.7799 44.2778C25.5257 44.2778 26.6233 46.1234 29.8892 46.0538C33.2503 46.0034 35.3679 43.276 37.3876 40.4843C38.8916 38.5137 40.0488 36.3359 40.8166 34.0313C38.8639 33.2682 37.1975 31.9908 36.0252 30.3584C34.8529 28.7261 34.2265 26.811 34.2243 24.8519Z" fill="white"/>
<path d="M28.0556 7.97151C29.8882 5.93869 30.7911 3.32586 30.5725 0.687874C27.7726 0.959596 25.1864 2.19605 23.329 4.15087C22.4209 5.10584 21.7254 6.21684 21.2822 7.42035C20.839 8.62385 20.6569 9.89626 20.7463 11.1648C22.1467 11.1782 23.5321 10.8977 24.7982 10.3446C26.0643 9.79142 27.1781 8.98003 28.0556 7.97151Z" fill="white"/>
<path d="M73.8167 39.1222H63.1276L60.5606 46.1259H56.0331L66.1577 20.2141H70.8615L80.9861 46.1259H76.3814L73.8167 39.1222ZM64.2346 35.8904H72.7075L68.5307 24.5239H68.4138L64.2346 35.8904Z" fill="white"/>
<path d="M102.852 36.681C102.852 42.5517 99.451 46.3235 94.3193 46.3235C93.0194 46.3863 91.7265 46.1096 90.5889 45.5251C89.4512 44.9405 88.5146 44.0718 87.8865 43.0183H87.7894V52.3755H83.5927V27.2341H87.6549V30.3763H87.7321C88.3891 29.3278 89.3415 28.4635 90.4878 27.8754C91.6342 27.2873 92.9316 26.9974 94.2421 27.0364C99.4311 27.0364 102.852 30.8266 102.852 36.681ZM98.538 36.681C98.538 32.8562 96.3989 30.3416 93.1351 30.3416C89.9286 30.3416 87.7718 32.9092 87.7718 36.681C87.7718 40.4875 89.9286 43.0367 93.1351 43.0367C96.3989 43.0367 98.538 40.5404 98.538 36.681Z" fill="white"/>
<path d="M125.354 36.681C125.354 42.5517 121.954 46.3235 116.822 46.3235C115.522 46.3863 114.229 46.1096 113.092 45.5251C111.954 44.9405 111.017 44.0718 110.389 43.0183H110.292V52.3755H106.096V27.2341H110.158V30.3763H110.235C110.892 29.3278 111.844 28.4635 112.991 27.8754C114.137 27.2873 115.434 26.9974 116.745 27.0364C121.934 27.0364 125.354 30.8266 125.354 36.681ZM121.041 36.681C121.041 32.8562 118.902 30.3416 115.638 30.3416C112.431 30.3416 110.275 32.9092 110.275 36.681C110.275 40.4875 112.431 43.0367 115.638 43.0367C118.902 43.0367 121.041 40.5404 121.041 36.681Z" fill="white"/>
<path d="M140.227 38.9062C140.538 41.4758 143.24 43.1629 146.931 43.1629C150.468 43.1629 153.013 41.4757 153.013 39.1588C153.013 37.1475 151.478 35.9433 147.844 35.118L144.21 34.309C139.06 33.1597 136.67 30.9345 136.67 27.3236C136.67 22.8529 140.886 19.782 146.874 19.782C152.799 19.782 156.862 22.8529 156.998 27.3236H152.762C152.508 24.7378 150.195 23.1769 146.814 23.1769C143.433 23.1769 141.12 24.7561 141.12 27.0547C141.12 28.8866 142.598 29.9646 146.212 30.7898L149.302 31.4907C155.055 32.748 157.446 34.8836 157.446 38.6737C157.446 43.5214 153.267 46.5577 146.62 46.5577C140.401 46.5577 136.202 43.5928 135.931 38.906L140.227 38.9062Z" fill="white"/>
<path d="M166.503 22.7633V27.2341H170.391V30.3049H166.503V40.7197C166.503 42.3377 167.282 43.0917 168.991 43.0917C169.452 43.0842 169.913 43.0543 170.371 43.0019V46.0544C169.603 46.1871 168.822 46.2472 168.04 46.2338C163.901 46.2338 162.287 44.7972 162.287 41.1333V30.3049H159.314V27.2341H162.287V22.7633H166.503Z" fill="white"/>
<path d="M172.643 36.681C172.643 30.737 176.431 27.0018 182.339 27.0018C188.267 27.0018 192.038 30.7369 192.038 36.681C192.038 42.6413 188.287 46.3602 182.339 46.3602C176.394 46.3602 172.643 42.6413 172.643 36.681ZM187.762 36.681C187.762 32.6035 185.74 30.197 182.339 30.197C178.939 30.197 176.919 32.6219 176.919 36.681C176.919 40.7748 178.939 43.163 182.339 43.163C185.74 43.163 187.762 40.7748 187.762 36.681Z" fill="white"/>
<path d="M195.498 27.2341H199.501V30.4496H199.598C199.869 29.4453 200.506 28.5578 201.401 27.9362C202.297 27.3147 203.397 26.9969 204.516 27.0364C205 27.0348 205.482 27.0834 205.954 27.1811V30.8082C205.343 30.6358 204.706 30.5567 204.068 30.5739C203.459 30.5511 202.851 30.6504 202.287 30.8651C201.722 31.0798 201.215 31.4047 200.8 31.8176C200.384 32.2306 200.07 32.7217 199.88 33.2572C199.689 33.7928 199.626 34.3602 199.695 34.9204V46.1258H195.498L195.498 27.2341Z" fill="white"/>
<path d="M225.303 40.5771C224.738 44.0066 221.124 46.3602 216.499 46.3602C210.552 46.3602 206.86 42.678 206.86 36.7706C206.86 30.8449 210.572 27.0018 216.323 27.0018C221.98 27.0018 225.537 30.5922 225.537 36.3203V37.6489H211.097V37.8832C211.03 38.5785 211.124 39.2789 211.373 39.9379C211.622 40.597 212.019 41.1996 212.54 41.7057C213.06 42.2118 213.691 42.6098 214.39 42.8734C215.089 43.1369 215.842 43.26 216.597 43.2343C217.588 43.3201 218.583 43.1079 219.434 42.6292C220.285 42.1504 220.946 41.4307 221.318 40.5771L225.303 40.5771ZM211.116 34.9387H221.338C221.376 34.3136 221.273 33.688 221.037 33.1012C220.8 32.5144 220.435 31.9791 219.964 31.5289C219.493 31.0787 218.927 30.7232 218.3 30.4849C217.674 30.2466 217.001 30.1305 216.323 30.144C215.64 30.1402 214.962 30.2615 214.33 30.5009C213.697 30.7404 213.123 31.0931 212.639 31.5389C212.154 31.9847 211.771 32.5146 211.509 33.0982C211.248 33.6817 211.115 34.3072 211.116 34.9387Z" fill="white"/>
<path d="M63.7087 0.710148C64.5885 0.651807 65.4714 0.774626 66.2936 1.06974C67.1159 1.36486 67.857 1.82492 68.4635 2.41674C69.07 3.00856 69.5269 3.71739 69.801 4.49209C70.0752 5.2668 70.1598 6.08807 70.0489 6.89667C70.0489 10.8743 67.7223 13.1607 63.7087 13.1607H58.8416V0.710148H63.7087ZM60.9344 11.4H63.4749C64.1036 11.4347 64.7328 11.3394 65.3166 11.1211C65.9004 10.9028 66.4243 10.567 66.8499 10.1381C67.2756 9.70913 67.5924 9.19788 67.7772 8.64155C67.9621 8.08522 68.0104 7.49779 67.9186 6.92204C68.0037 6.34857 67.9505 5.76479 67.7628 5.21253C67.5751 4.66028 67.2576 4.15322 66.8329 3.72769C66.4082 3.30217 65.8869 2.96871 65.3063 2.7512C64.7258 2.5337 64.1004 2.43754 63.4749 2.46961H60.9344V11.4Z" fill="white"/>
<path d="M72.413 8.45851C72.349 7.84104 72.4255 7.21804 72.6374 6.62947C72.8493 6.04089 73.192 5.49974 73.6435 5.04072C74.095 4.5817 74.6454 4.21494 75.2593 3.96397C75.8732 3.713 76.5371 3.58336 77.2084 3.58336C77.8797 3.58336 78.5436 3.713 79.1575 3.96397C79.7714 4.21494 80.3217 4.5817 80.7733 5.04072C81.2248 5.49974 81.5675 6.04089 81.7794 6.62947C81.9913 7.21804 82.0677 7.84104 82.0038 8.45851C82.069 9.07662 81.9934 9.70048 81.7821 10.29C81.5707 10.8795 81.2282 11.4217 80.7766 11.8816C80.325 12.3415 79.7742 12.709 79.1597 12.9606C78.5452 13.2121 77.8805 13.342 77.2084 13.342C76.5363 13.342 75.8716 13.2121 75.2571 12.9606C74.6426 12.709 74.0918 12.3415 73.6402 11.8816C73.1886 11.4217 72.8461 10.8795 72.6347 10.29C72.4234 9.70048 72.3478 9.07662 72.413 8.45851ZM79.9396 8.45851C79.9396 6.42182 78.9495 5.23077 77.2117 5.23077C75.4673 5.23077 74.486 6.42182 74.486 8.45853C74.486 10.5115 75.4674 11.6934 77.2117 11.6934C78.9495 11.6934 79.9396 10.5034 79.9396 8.45851Z" fill="white"/>
<path d="M94.7526 13.1605H92.6709L90.5692 6.24043H90.4104L88.3176 13.1605H86.2556L83.4527 3.7646H85.4882L87.3098 10.9343H87.4598L89.5504 3.7646H91.4756L93.5662 10.9343H93.725L95.5378 3.7646H97.5446L94.7526 13.1605Z" fill="white"/>
<path d="M99.902 3.7646H101.834V5.25723H101.984C102.238 4.72113 102.667 4.27173 103.211 3.97166C103.755 3.67159 104.387 3.5358 105.018 3.58323C105.513 3.54885 106.01 3.61779 106.472 3.78492C106.934 3.95205 107.349 4.2131 107.687 4.54872C108.025 4.88434 108.277 5.28593 108.425 5.72375C108.572 6.16157 108.611 6.62438 108.538 7.07792V13.1604H106.531V7.54357C106.531 6.03362 105.821 5.28271 104.337 5.28271C104.001 5.26825 103.666 5.32108 103.354 5.43757C103.042 5.55407 102.761 5.73148 102.531 5.95764C102.3 6.1838 102.125 6.45336 102.018 6.74785C101.91 7.04234 101.873 7.35478 101.909 7.66378V13.1605H99.902L99.902 3.7646Z" fill="white"/>
<path d="M111.736 0.0966797H113.742V13.1605H111.736V0.0966797Z" fill="white"/>
<path d="M116.532 8.45851C116.468 7.841 116.545 7.21797 116.757 6.62937C116.969 6.04077 117.311 5.4996 117.763 5.04057C118.215 4.58154 118.765 4.21478 119.379 3.9638C119.993 3.71283 120.657 3.58318 121.328 3.58318C121.999 3.58318 122.663 3.71283 123.277 3.9638C123.891 4.21478 124.442 4.58154 124.893 5.04057C125.345 5.4996 125.688 6.04077 125.9 6.62937C126.112 7.21797 126.188 7.841 126.124 8.45851C126.189 9.07664 126.114 9.70051 125.902 10.29C125.691 10.8796 125.348 11.4217 124.897 11.8816C124.445 12.3415 123.894 12.709 123.279 12.9605C122.665 13.212 122 13.3419 121.328 13.3419C120.656 13.3419 119.991 13.212 119.377 12.9605C118.762 12.709 118.211 12.3415 117.76 11.8816C117.308 11.4217 116.966 10.8796 116.754 10.29C116.543 9.70051 116.467 9.07664 116.532 8.45851ZM124.059 8.45851C124.059 6.42182 123.069 5.23077 121.331 5.23077C119.587 5.23077 118.605 6.42182 118.605 8.45853C118.605 10.5115 119.587 11.6934 121.331 11.6934C123.069 11.6934 124.059 10.5034 124.059 8.45851Z" fill="white"/>
<path d="M128.237 10.5034C128.237 8.81205 129.6 7.83701 132.019 7.69844L134.773 7.55173V6.74072C134.773 5.74834 134.063 5.18797 132.692 5.18797C131.571 5.18797 130.795 5.56801 130.572 6.23231H128.629C128.834 4.61843 130.477 3.58327 132.784 3.58327C135.333 3.58327 136.771 4.75596 136.771 6.74072V13.1606H134.839V11.8401H134.681C134.358 12.3138 133.906 12.6999 133.369 12.9591C132.833 13.2183 132.231 13.3412 131.626 13.3154C131.199 13.3564 130.768 13.3143 130.36 13.1918C129.952 13.0694 129.576 12.8692 129.256 12.6043C128.937 12.3393 128.681 12.0155 128.506 11.6536C128.33 11.2918 128.238 10.8999 128.237 10.5034ZM134.773 9.7005V8.91496L132.29 9.06168C130.89 9.14827 130.255 9.58842 130.255 10.4168C130.255 11.2624 131.049 11.7545 132.14 11.7545C132.46 11.7844 132.783 11.7546 133.09 11.6668C133.397 11.5789 133.682 11.4349 133.928 11.2433C134.174 11.0516 134.375 10.8163 134.52 10.5513C134.666 10.2862 134.752 9.99689 134.773 9.7005Z" fill="white"/>
<path d="M139.409 8.45851C139.409 5.48955 141.061 3.60873 143.63 3.60873C144.265 3.58167 144.896 3.72232 145.448 4.01422C146 4.30613 146.451 4.73724 146.748 5.25716H146.898V0.0966797H148.905V13.1605H146.982V11.676H146.823C146.503 12.1925 146.037 12.6182 145.474 12.9072C144.911 13.1961 144.273 13.3373 143.63 13.3154C141.043 13.3155 139.409 11.4346 139.409 8.45851ZM141.482 8.45851C141.482 10.4514 142.499 11.6506 144.199 11.6506C145.89 11.6506 146.936 10.4341 146.936 8.46667C146.936 6.50841 145.879 5.27457 144.199 5.27457C142.51 5.27457 141.482 6.48191 141.482 8.45851Z" fill="white"/>
<path d="M157.208 8.45851C157.144 7.84104 157.22 7.21804 157.432 6.62947C157.644 6.04089 157.987 5.49974 158.438 5.04072C158.89 4.5817 159.44 4.21494 160.054 3.96397C160.668 3.713 161.332 3.58336 162.003 3.58336C162.675 3.58336 163.338 3.713 163.952 3.96397C164.566 4.21494 165.117 4.5817 165.568 5.04072C166.02 5.49974 166.362 6.04089 166.574 6.62947C166.786 7.21804 166.863 7.84104 166.799 8.45851C166.864 9.07662 166.788 9.70048 166.577 10.29C166.366 10.8795 166.023 11.4217 165.571 11.8816C165.12 12.3415 164.569 12.709 163.955 12.9606C163.34 13.2121 162.675 13.342 162.003 13.342C161.331 13.342 160.666 13.2121 160.052 12.9606C159.437 12.709 158.887 12.3415 158.435 11.8816C157.983 11.4217 157.641 10.8795 157.43 10.29C157.218 9.70048 157.143 9.07662 157.208 8.45851ZM164.734 8.45851C164.734 6.42182 163.744 5.23077 162.007 5.23077C160.262 5.23077 159.281 6.42182 159.281 8.45853C159.281 10.5115 160.262 11.6934 162.007 11.6934C163.744 11.6934 164.734 10.5034 164.734 8.45851Z" fill="white"/>
<path d="M169.491 3.7646H171.423V5.25723H171.573C171.828 4.72113 172.257 4.27173 172.801 3.97166C173.344 3.67159 173.976 3.5358 174.608 3.58323C175.102 3.54885 175.599 3.61779 176.061 3.78492C176.523 3.95205 176.939 4.2131 177.277 4.54872C177.615 4.88434 177.867 5.28593 178.014 5.72375C178.161 6.16157 178.2 6.62438 178.127 7.07792V13.1604H176.12V7.54357C176.12 6.03362 175.41 5.28271 173.926 5.28271C173.59 5.26825 173.255 5.32108 172.943 5.43757C172.631 5.55407 172.351 5.73148 172.12 5.95764C171.889 6.1838 171.714 6.45336 171.607 6.74785C171.5 7.04234 171.463 7.35478 171.498 7.66378V13.1605H169.491V3.7646Z" fill="white"/>
<path d="M189.467 1.4253V3.8074H191.67V5.36932H189.467V10.2008C189.467 11.185 189.906 11.616 190.905 11.616C191.161 11.6152 191.416 11.6009 191.67 11.5732V13.1178C191.31 13.1773 190.944 13.209 190.578 13.2125C188.347 13.2125 187.458 12.4871 187.458 10.6755V5.36924H185.844V3.80731H187.458V1.4253H189.467Z" fill="white"/>
<path d="M194.411 0.0966797H196.4V5.27455H196.559C196.826 4.73344 197.267 4.2815 197.822 3.9803C198.376 3.6791 199.018 3.54329 199.66 3.59139C200.152 3.56664 200.644 3.64257 201.101 3.81376C201.558 3.98495 201.968 4.24718 202.302 4.58175C202.637 4.91632 202.887 5.31497 203.036 5.74927C203.184 6.18357 203.227 6.64281 203.162 7.09423V13.1605H201.153V7.55169C201.153 6.0509 200.396 5.29082 198.978 5.29082C198.634 5.26468 198.287 5.3085 197.962 5.4192C197.637 5.5299 197.343 5.70482 197.099 5.93172C196.855 6.15861 196.668 6.432 196.55 6.73277C196.432 7.03353 196.387 7.35439 196.418 7.67292V13.1605H194.411L194.411 0.0966797Z" fill="white"/>
<path d="M214.863 10.6236C214.59 11.4823 214 12.2251 213.194 12.722C212.389 13.219 211.42 13.4384 210.457 13.3419C209.787 13.3582 209.121 13.2397 208.506 12.9944C207.891 12.7492 207.34 12.3832 206.893 11.9217C206.446 11.4603 206.114 10.9145 205.918 10.3223C205.722 9.73006 205.668 9.10556 205.76 8.49213C205.67 7.87681 205.725 7.25097 205.921 6.65696C206.116 6.06295 206.447 5.51466 206.892 5.04918C207.336 4.58371 207.884 4.21193 208.497 3.95902C209.111 3.7061 209.776 3.57796 210.448 3.58325C213.278 3.58325 214.984 5.3694 214.984 8.3199V8.96694H207.804V9.07086C207.773 9.41566 207.819 9.76273 207.942 10.0898C208.064 10.4169 208.259 10.7168 208.514 10.9702C208.769 11.2236 209.078 11.425 209.422 11.5615C209.766 11.6979 210.138 11.7664 210.512 11.7626C210.992 11.8159 211.478 11.736 211.909 11.5332C212.34 11.3303 212.696 11.0137 212.931 10.6235L214.863 10.6236ZM207.804 7.59552H212.94C212.965 7.28018 212.919 6.96343 212.804 6.66563C212.689 6.36783 212.508 6.09556 212.272 5.86633C212.036 5.6371 211.751 5.45597 211.435 5.33458C211.119 5.21319 210.779 5.15422 210.437 5.16147C210.09 5.15744 209.746 5.21766 209.424 5.33857C209.103 5.45948 208.81 5.63863 208.565 5.86548C208.32 6.09232 208.126 6.36226 207.995 6.65939C207.864 6.95652 207.799 7.27482 207.804 7.59552Z" fill="white"/>
</svg>
