<svg width="416" height="428" viewBox="0 0 416 428" fill="none" xmlns="http://www.w3.org/2000/svg">
<path d="M336.914 60.7222C336.914 45.4401 326.374 37.7737 305.324 37.7737C264.987 37.7737 228.407 53.8935 195.526 86.1077C176.091 105.071 162.527 125.582 154.777 147.642C150.931 158.406 149.023 167.925 149.023 176.176C149.023 184.375 150.109 190.874 152.311 195.672C154.571 200.495 157.39 204.455 160.766 207.552C167.958 214.127 176.296 216.665 185.779 215.168C196.113 211.588 205.214 209.786 213.14 209.786C221.038 209.786 227.35 210.675 232.047 212.426C236.803 214.127 240.678 216.259 243.673 218.823C249.779 223.9 252.832 228.825 252.832 233.547C252.832 242.838 249.221 247.661 242.029 248.067C231.049 248.956 219.54 251.596 207.504 255.988C195.526 260.329 183.43 266.015 171.217 273.047C159.004 280.104 148.113 287.973 138.571 296.706C116.876 316.761 106.043 336.891 106.043 357.124C106.043 366.821 108.655 374.132 113.911 379.057C122.747 387.586 133.287 391.851 145.5 391.851C157.771 391.851 169.749 389.82 181.434 385.758C193.177 381.646 203.775 376.67 213.258 370.832C227.585 361.896 241.5 350.498 255.064 336.612C261.787 329.707 267.658 326.255 272.678 326.255C277.757 326.255 281.603 328.87 284.187 334.074C286.829 339.303 288.179 344.812 288.179 350.625C288.179 362.607 285.537 371.492 280.311 377.229C275.056 382.991 268.48 388.754 260.583 394.491C252.656 400.254 243.232 405.61 232.282 410.535C205.889 422.187 177.617 428 147.496 428C96.6774 428 61.8882 413.581 43.0991 384.743C36.3468 373.98 33 362.962 33 351.64C33 340.344 34.9376 329.885 38.8716 320.264C42.7762 310.592 47.7964 301.631 53.9029 293.355C60.0093 285.029 66.8497 277.565 74.4534 270.914C82.0278 264.213 89.5141 258.425 96.8829 253.551C111.444 243.676 123.452 238.091 132.934 236.796C109.125 228.622 93.1251 212.68 84.9049 188.97C82.3214 181.329 81.0296 172.063 81.0296 161.147C81.0296 150.181 83.437 138.097 88.3104 124.897C93.1544 111.646 99.9948 98.9528 108.861 86.8185C117.698 74.7096 128.237 63.3623 140.45 52.8019C152.722 42.1908 166.226 32.9758 180.964 25.1824C212.817 8.40261 246.374 0 281.603 0C318.477 0 345.985 7.92028 364.158 23.7609C378.719 36.5552 386 52.8781 386 72.7042C386 95.3227 375.02 118.195 353.119 141.347C339.791 155.233 327.813 164.651 317.185 169.575C306.528 174.449 298.19 177.14 292.172 177.597C286.124 178.079 280.546 177.47 275.379 175.769C270.212 174.018 265.75 171.682 261.992 168.763C253.302 162.01 248.957 155.867 248.957 150.384C248.957 143.682 251.687 138.503 257.177 134.848L285.713 117.281C319.827 95.6273 336.914 76.7658 336.914 60.7222Z" fill="white"/>
</svg>
