<svg width="416" height="428" viewBox="0 0 416 428" fill="none" xmlns="http://www.w3.org/2000/svg">
<path d="M301.541 101.549C301.541 90.3369 293.927 84.7125 278.722 84.7125C249.582 84.7125 223.158 96.5387 199.405 120.172C185.366 134.085 175.568 149.133 169.969 165.317C167.191 173.214 165.812 180.198 165.812 186.25C165.812 192.266 166.597 197.034 168.188 200.554C169.821 204.092 171.857 206.997 174.295 209.27C179.491 214.093 185.514 215.956 192.364 214.857C199.829 212.231 206.404 210.908 212.13 210.908C217.835 210.908 222.394 211.56 225.787 212.845C229.223 214.093 232.022 215.658 234.186 217.539C238.597 221.263 240.802 224.876 240.802 228.34C240.802 235.157 238.194 238.695 232.998 238.993C225.066 239.645 216.753 241.582 208.058 244.804C199.405 247.989 190.668 252.161 181.845 257.319C173.023 262.497 165.155 268.27 158.262 274.677C142.59 289.39 134.764 304.159 134.764 319.002C134.764 326.116 136.652 331.48 140.448 335.093C146.832 341.351 154.445 344.479 163.267 344.479C172.132 344.479 180.785 342.99 189.226 340.01C197.709 336.993 205.365 333.342 212.215 329.059C222.564 322.503 232.616 314.141 242.414 303.954C247.271 298.888 251.512 296.355 255.139 296.355C258.808 296.355 261.586 298.273 263.452 302.091C265.361 305.928 266.336 309.969 266.336 314.234C266.336 323.025 264.428 329.543 260.653 333.752C256.857 337.98 252.106 342.207 246.401 346.416C240.675 350.644 233.868 354.574 225.957 358.187C206.891 366.735 186.469 371 164.71 371C127.999 371 102.868 360.422 89.2954 339.265C84.4177 331.368 82 323.285 82 314.979C82 306.691 83.3997 299.018 86.2415 291.96C89.0621 284.864 92.6886 278.29 97.0998 272.219C101.511 266.11 106.452 260.634 111.945 255.755C117.417 250.838 122.825 246.592 128.148 243.016C138.667 235.771 147.341 231.674 154.191 230.724C136.991 224.727 125.433 213.032 119.495 195.637C117.629 190.031 116.696 183.233 116.696 175.225C116.696 167.179 118.435 158.314 121.955 148.63C125.454 138.908 130.396 129.596 136.8 120.694C143.184 111.81 150.797 103.485 159.62 95.7378C168.485 87.953 178.24 81.1925 188.886 75.475C211.896 63.1645 236.137 57 261.586 57C288.223 57 308.094 62.8107 321.222 74.432C331.741 83.8185 337 95.7937 337 110.339C337 126.933 329.068 143.713 313.247 160.698C303.619 170.886 294.967 177.795 287.289 181.408C279.591 184.984 273.568 186.958 269.221 187.293C264.852 187.647 260.822 187.2 257.09 185.952C253.357 184.667 250.134 182.954 247.419 180.812C241.142 175.858 238.003 171.351 238.003 167.328C238.003 162.412 239.975 158.612 243.941 155.93L264.555 143.043C289.198 127.156 301.541 113.319 301.541 101.549Z" fill="white"/>
</svg>
