<svg width="416" height="428" viewBox="0 0 416 428" fill="none" xmlns="http://www.w3.org/2000/svg">
<path d="M292.461 70.5416C292.461 59.0801 285.475 53.3302 271.521 53.3302C244.781 53.3302 220.533 65.4201 198.737 89.5808C185.853 103.803 176.862 119.187 171.725 135.732C169.175 143.804 167.91 150.944 167.91 157.132C167.91 163.281 168.63 168.155 170.09 171.754C171.588 175.371 173.457 178.341 175.695 180.664C180.463 185.595 185.99 187.499 192.275 186.376C199.126 183.691 205.159 182.34 210.413 182.34C215.648 182.34 219.832 183.006 222.946 184.32C226.099 185.595 228.668 187.195 230.653 189.117C234.701 192.925 236.725 196.619 236.725 200.16C236.725 207.128 234.331 210.746 229.563 211.051C222.284 211.717 214.656 213.697 206.677 216.991C198.737 220.246 190.719 224.511 182.623 229.785C174.527 235.078 167.307 240.98 160.982 247.53C146.6 262.57 139.419 277.669 139.419 292.843C139.419 300.116 141.151 305.599 144.635 309.293C150.493 315.69 157.479 318.888 165.575 318.888C173.71 318.888 181.65 317.365 189.395 314.319C197.18 311.235 204.205 307.503 210.491 303.124C219.988 296.422 229.213 287.874 238.204 277.459C242.66 272.28 246.552 269.691 249.88 269.691C253.247 269.691 255.796 271.652 257.509 275.555C259.26 279.477 260.156 283.609 260.156 287.969C260.156 296.955 258.404 303.619 254.94 307.922C251.457 312.244 247.097 316.566 241.862 320.868C236.608 325.19 230.361 329.207 223.102 332.901C205.606 341.64 186.865 346 166.898 346C133.211 346 110.15 335.186 97.6946 313.557C93.2186 305.485 91 297.222 91 288.73C91 280.258 92.2844 272.414 94.8922 265.198C97.4805 257.944 100.808 251.223 104.856 245.016C108.904 238.772 113.439 233.174 118.479 228.186C123.5 223.159 128.463 218.819 133.347 215.163C143 207.757 150.96 203.568 157.246 202.597C141.463 196.467 130.856 184.51 125.407 166.727C123.695 160.997 122.838 154.047 122.838 145.861C122.838 137.636 124.434 128.573 127.665 118.673C130.876 108.734 135.41 99.2146 141.287 90.1139C147.145 81.0322 154.132 72.5217 162.228 64.6014C170.362 56.6431 179.314 49.7319 189.084 43.8868C210.199 31.302 232.443 25 255.796 25C280.24 25 298.475 30.9402 310.521 42.8206C320.174 52.4164 325 64.6585 325 79.5281C325 96.492 317.722 113.646 303.204 131.01C294.368 141.424 286.428 148.488 279.383 152.182C272.319 155.837 266.792 157.855 262.802 158.198C258.793 158.56 255.096 158.103 251.671 156.827C248.246 155.513 245.287 153.762 242.796 151.572C237.036 146.508 234.156 141.9 234.156 137.788C234.156 132.762 235.966 128.878 239.605 126.136L258.521 112.961C281.135 96.7205 292.461 82.5744 292.461 70.5416Z" fill="white"/>
</svg>
