<svg width="413" height="110" viewBox="0 0 413 110" fill="none" xmlns="http://www.w3.org/2000/svg">
<path d="M15.5111 53.48C13.4631 53.48 11.6231 53.144 9.99109 52.472C8.35909 51.768 6.96709 50.808 5.81509 49.592C4.66309 48.344 3.76709 46.936 3.12709 45.368C2.51909 43.8 2.21509 42.152 2.21509 40.424C2.21509 38.056 2.74309 35.896 3.79909 33.944C4.88709 31.96 6.42309 30.376 8.40709 29.192C10.3911 28.008 12.7431 27.416 15.4631 27.416C18.1831 27.416 20.5191 28.008 22.4711 29.192C24.4231 30.376 25.8791 31.928 26.8391 33.848L20.5511 35.768C20.0071 34.84 19.2871 34.136 18.3911 33.656C17.4951 33.144 16.5031 32.888 15.4151 32.888C14.1991 32.888 13.0791 33.208 12.0551 33.848C11.0631 34.456 10.2791 35.336 9.70309 36.488C9.12709 37.608 8.83909 38.92 8.83909 40.424C8.83909 41.896 9.12709 43.208 9.70309 44.36C10.3111 45.48 11.1111 46.376 12.1031 47.048C13.0951 47.688 14.1991 48.008 15.4151 48.008C16.1831 48.008 16.9031 47.88 17.5751 47.624C18.2791 47.368 18.9031 47.016 19.4471 46.568C19.9911 46.12 20.3911 45.608 20.6471 45.032L26.9351 46.952C26.3591 48.2 25.5111 49.32 24.3911 50.312C23.3031 51.304 22.0071 52.088 20.5031 52.664C19.0311 53.208 17.3671 53.48 15.5111 53.48ZM42.2745 53.48C40.2265 53.48 38.3865 53.144 36.7545 52.472C35.1225 51.768 33.7305 50.808 32.5785 49.592C31.4585 48.376 30.5945 46.984 29.9865 45.416C29.3785 43.848 29.0745 42.2 29.0745 40.472C29.0745 38.712 29.3785 37.048 29.9865 35.48C30.5945 33.912 31.4585 32.52 32.5785 31.304C33.7305 30.088 35.1225 29.144 36.7545 28.472C38.3865 27.768 40.2265 27.416 42.2745 27.416C44.3225 27.416 46.1465 27.768 47.7465 28.472C49.3785 29.144 50.7705 30.088 51.9225 31.304C53.0745 32.52 53.9385 33.912 54.5145 35.48C55.1225 37.048 55.4265 38.712 55.4265 40.472C55.4265 42.2 55.1225 43.848 54.5145 45.416C53.9385 46.984 53.0745 48.376 51.9225 49.592C50.8025 50.808 49.4265 51.768 47.7945 52.472C46.1625 53.144 44.3225 53.48 42.2745 53.48ZM35.6985 40.472C35.6985 41.944 35.9865 43.256 36.5625 44.408C37.1385 45.528 37.9225 46.408 38.9145 47.048C39.9065 47.688 41.0265 48.008 42.2745 48.008C43.4905 48.008 44.5945 47.688 45.5865 47.048C46.5785 46.376 47.3625 45.48 47.9385 44.36C48.5465 43.208 48.8505 41.896 48.8505 40.424C48.8505 38.984 48.5465 37.688 47.9385 36.536C47.3625 35.384 46.5785 34.488 45.5865 33.848C44.5945 33.208 43.4905 32.888 42.2745 32.888C41.0265 32.888 39.9065 33.224 38.9145 33.896C37.9225 34.536 37.1385 35.432 36.5625 36.584C35.9865 37.704 35.6985 39 35.6985 40.472ZM71.3838 53.48C69.3358 53.48 67.4958 53.144 65.8638 52.472C64.2318 51.768 62.8398 50.808 61.6878 49.592C60.5678 48.376 59.7038 46.984 59.0958 45.416C58.4878 43.848 58.1838 42.2 58.1838 40.472C58.1838 38.712 58.4878 37.048 59.0958 35.48C59.7038 33.912 60.5678 32.52 61.6878 31.304C62.8398 30.088 64.2318 29.144 65.8638 28.472C67.4958 27.768 69.3358 27.416 71.3838 27.416C73.4318 27.416 75.2558 27.768 76.8558 28.472C78.4878 29.144 79.8798 30.088 81.0318 31.304C82.1838 32.52 83.0478 33.912 83.6238 35.48C84.2318 37.048 84.5358 38.712 84.5358 40.472C84.5358 42.2 84.2318 43.848 83.6238 45.416C83.0478 46.984 82.1838 48.376 81.0318 49.592C79.9118 50.808 78.5358 51.768 76.9038 52.472C75.2718 53.144 73.4318 53.48 71.3838 53.48ZM64.8078 40.472C64.8078 41.944 65.0958 43.256 65.6718 44.408C66.2478 45.528 67.0318 46.408 68.0238 47.048C69.0158 47.688 70.1358 48.008 71.3838 48.008C72.5998 48.008 73.7038 47.688 74.6958 47.048C75.6878 46.376 76.4718 45.48 77.0478 44.36C77.6558 43.208 77.9598 41.896 77.9598 40.424C77.9598 38.984 77.6558 37.688 77.0478 36.536C76.4718 35.384 75.6878 34.488 74.6958 33.848C73.7038 33.208 72.5998 32.888 71.3838 32.888C70.1358 32.888 69.0158 33.224 68.0238 33.896C67.0318 34.536 66.2478 35.432 65.6718 36.584C65.0958 37.704 64.8078 39 64.8078 40.472ZM88.8292 17.96H95.2612V44.936C95.2612 46.088 95.4532 46.872 95.8372 47.288C96.2212 47.672 96.7492 47.864 97.4212 47.864C97.9332 47.864 98.4612 47.8 99.0052 47.672C99.5492 47.544 100.029 47.384 100.445 47.192L101.309 52.088C100.445 52.504 99.4372 52.824 98.2852 53.048C97.1332 53.272 96.0932 53.384 95.1652 53.384C93.1492 53.384 91.5812 52.856 90.4612 51.8C89.3732 50.712 88.8292 49.176 88.8292 47.192V17.96ZM119.184 53.48C117.232 53.48 115.504 53.048 114 52.184C112.528 51.288 111.376 50.088 110.544 48.584V63.224H104.112V27.848H109.728V32.168C110.688 30.696 111.904 29.544 113.376 28.712C114.848 27.848 116.528 27.416 118.416 27.416C120.112 27.416 121.664 27.752 123.072 28.424C124.512 29.096 125.76 30.04 126.816 31.256C127.872 32.44 128.688 33.816 129.264 35.384C129.872 36.92 130.176 38.584 130.176 40.376C130.176 42.808 129.696 45.016 128.736 47C127.808 48.984 126.512 50.568 124.848 51.752C123.216 52.904 121.328 53.48 119.184 53.48ZM117.024 48.008C118.016 48.008 118.912 47.8 119.712 47.384C120.512 46.968 121.2 46.408 121.776 45.704C122.384 44.968 122.832 44.152 123.12 43.256C123.44 42.328 123.6 41.368 123.6 40.376C123.6 39.32 123.424 38.344 123.072 37.448C122.752 36.552 122.272 35.768 121.632 35.096C120.992 34.392 120.24 33.848 119.376 33.464C118.544 33.08 117.632 32.888 116.64 32.888C116.032 32.888 115.408 33 114.768 33.224C114.16 33.416 113.568 33.704 112.992 34.088C112.416 34.472 111.904 34.92 111.456 35.432C111.04 35.944 110.736 36.504 110.544 37.112V43.016C110.928 43.944 111.44 44.792 112.08 45.56C112.752 46.328 113.52 46.936 114.384 47.384C115.248 47.8 116.128 48.008 117.024 48.008ZM149.509 33.416C147.557 33.416 145.813 33.8 144.277 34.568C142.741 35.304 141.637 36.376 140.965 37.784V53H134.533V27.848H140.437V33.224C141.333 31.496 142.469 30.136 143.845 29.144C145.221 28.152 146.677 27.608 148.213 27.512C148.565 27.512 148.837 27.512 149.029 27.512C149.221 27.512 149.381 27.528 149.509 27.56V33.416ZM164.384 53.48C162.336 53.48 160.496 53.144 158.864 52.472C157.232 51.768 155.84 50.808 154.688 49.592C153.568 48.376 152.704 46.984 152.096 45.416C151.488 43.848 151.184 42.2 151.184 40.472C151.184 38.712 151.488 37.048 152.096 35.48C152.704 33.912 153.568 32.52 154.688 31.304C155.84 30.088 157.232 29.144 158.864 28.472C160.496 27.768 162.336 27.416 164.384 27.416C166.432 27.416 168.256 27.768 169.856 28.472C171.488 29.144 172.88 30.088 174.032 31.304C175.184 32.52 176.048 33.912 176.624 35.48C177.232 37.048 177.536 38.712 177.536 40.472C177.536 42.2 177.232 43.848 176.624 45.416C176.048 46.984 175.184 48.376 174.032 49.592C172.912 50.808 171.536 51.768 169.904 52.472C168.272 53.144 166.432 53.48 164.384 53.48ZM157.808 40.472C157.808 41.944 158.096 43.256 158.672 44.408C159.248 45.528 160.032 46.408 161.024 47.048C162.016 47.688 163.136 48.008 164.384 48.008C165.6 48.008 166.704 47.688 167.696 47.048C168.688 46.376 169.472 45.48 170.048 44.36C170.656 43.208 170.96 41.896 170.96 40.424C170.96 38.984 170.656 37.688 170.048 36.536C169.472 35.384 168.688 34.488 167.696 33.848C166.704 33.208 165.6 32.888 164.384 32.888C163.136 32.888 162.016 33.224 161.024 33.896C160.032 34.536 159.248 35.432 158.672 36.584C158.096 37.704 157.808 39 157.808 40.472ZM180.341 40.424C180.341 37.992 180.821 35.8 181.781 33.848C182.741 31.864 184.069 30.296 185.765 29.144C187.461 27.992 189.397 27.416 191.573 27.416C193.429 27.416 195.093 27.88 196.565 28.808C198.069 29.704 199.237 30.856 200.069 32.264V17.96H206.501V45.8C206.501 46.472 206.613 46.952 206.837 47.24C207.061 47.528 207.445 47.704 207.989 47.768V53C206.869 53.224 205.957 53.336 205.253 53.336C204.101 53.336 203.141 53.048 202.373 52.472C201.637 51.896 201.221 51.144 201.125 50.216L201.029 48.632C200.101 50.2 198.837 51.4 197.237 52.232C195.669 53.064 194.021 53.48 192.293 53.48C190.565 53.48 188.965 53.144 187.493 52.472C186.053 51.8 184.789 50.872 183.701 49.688C182.645 48.504 181.813 47.128 181.205 45.56C180.629 43.96 180.341 42.248 180.341 40.424ZM200.069 43.784V37.784C199.749 36.856 199.237 36.024 198.533 35.288C197.829 34.552 197.045 33.976 196.181 33.56C195.317 33.112 194.453 32.888 193.589 32.888C192.597 32.888 191.701 33.096 190.901 33.512C190.101 33.928 189.397 34.488 188.789 35.192C188.213 35.896 187.765 36.712 187.445 37.64C187.157 38.568 187.013 39.544 187.013 40.568C187.013 41.592 187.173 42.568 187.493 43.496C187.845 44.392 188.341 45.176 188.981 45.848C189.621 46.52 190.357 47.048 191.189 47.432C192.053 47.816 192.981 48.008 193.973 48.008C194.581 48.008 195.189 47.912 195.797 47.72C196.437 47.496 197.029 47.208 197.573 46.856C198.149 46.472 198.645 46.024 199.061 45.512C199.509 44.968 199.845 44.392 200.069 43.784ZM212.575 43.592V27.848H219.007V42.2C219.007 44.12 219.359 45.576 220.063 46.568C220.767 47.528 221.807 48.008 223.183 48.008C224.015 48.008 224.831 47.848 225.631 47.528C226.463 47.176 227.215 46.664 227.887 45.992C228.591 45.32 229.183 44.472 229.663 43.448V27.848H236.095V45.8C236.095 46.472 236.207 46.952 236.431 47.24C236.687 47.528 237.087 47.704 237.631 47.768V53C236.991 53.096 236.447 53.16 235.999 53.192C235.583 53.256 235.199 53.288 234.847 53.288C233.695 53.288 232.751 53.032 232.015 52.52C231.311 51.976 230.895 51.24 230.767 50.312L230.623 48.296C229.503 49.992 228.063 51.288 226.303 52.184C224.543 53.048 222.607 53.48 220.495 53.48C217.903 53.48 215.935 52.648 214.591 50.984C213.247 49.288 212.575 46.824 212.575 43.592ZM254.199 53.48C252.151 53.48 250.311 53.144 248.679 52.472C247.047 51.768 245.655 50.808 244.503 49.592C243.351 48.344 242.455 46.936 241.815 45.368C241.207 43.8 240.903 42.152 240.903 40.424C240.903 38.056 241.431 35.896 242.487 33.944C243.575 31.96 245.111 30.376 247.095 29.192C249.079 28.008 251.431 27.416 254.151 27.416C256.871 27.416 259.207 28.008 261.159 29.192C263.111 30.376 264.567 31.928 265.527 33.848L259.239 35.768C258.695 34.84 257.975 34.136 257.079 33.656C256.183 33.144 255.191 32.888 254.103 32.888C252.887 32.888 251.767 33.208 250.743 33.848C249.751 34.456 248.967 35.336 248.391 36.488C247.815 37.608 247.527 38.92 247.527 40.424C247.527 41.896 247.815 43.208 248.391 44.36C248.999 45.48 249.799 46.376 250.791 47.048C251.783 47.688 252.887 48.008 254.103 48.008C254.871 48.008 255.591 47.88 256.263 47.624C256.967 47.368 257.591 47.016 258.135 46.568C258.679 46.12 259.079 45.608 259.335 45.032L265.623 46.952C265.047 48.2 264.199 49.32 263.079 50.312C261.991 51.304 260.695 52.088 259.191 52.664C257.719 53.208 256.055 53.48 254.199 53.48ZM284.652 51.704C284.108 51.928 283.452 52.184 282.684 52.472C281.916 52.76 281.084 52.984 280.188 53.144C279.324 53.336 278.444 53.432 277.548 53.432C276.364 53.432 275.276 53.224 274.284 52.808C273.292 52.392 272.492 51.736 271.884 50.84C271.308 49.912 271.02 48.712 271.02 47.24V32.792H267.708V27.848H271.02V19.688H277.452V27.848H282.732V32.792H277.452V45.08C277.484 45.944 277.724 46.568 278.172 46.952C278.62 47.336 279.18 47.528 279.852 47.528C280.524 47.528 281.18 47.416 281.82 47.192C282.46 46.968 282.972 46.776 283.356 46.616L284.652 51.704ZM288.002 53V27.848H294.434V53H288.002ZM288.002 24.344V17.96H294.434V24.344H288.002ZM311.853 53.48C309.805 53.48 307.965 53.144 306.333 52.472C304.701 51.768 303.309 50.808 302.157 49.592C301.037 48.376 300.173 46.984 299.565 45.416C298.957 43.848 298.653 42.2 298.653 40.472C298.653 38.712 298.957 37.048 299.565 35.48C300.173 33.912 301.037 32.52 302.157 31.304C303.309 30.088 304.701 29.144 306.333 28.472C307.965 27.768 309.805 27.416 311.853 27.416C313.901 27.416 315.725 27.768 317.325 28.472C318.957 29.144 320.349 30.088 321.501 31.304C322.653 32.52 323.517 33.912 324.093 35.48C324.701 37.048 325.005 38.712 325.005 40.472C325.005 42.2 324.701 43.848 324.093 45.416C323.517 46.984 322.653 48.376 321.501 49.592C320.381 50.808 319.005 51.768 317.373 52.472C315.741 53.144 313.901 53.48 311.853 53.48ZM305.277 40.472C305.277 41.944 305.565 43.256 306.141 44.408C306.717 45.528 307.501 46.408 308.493 47.048C309.485 47.688 310.605 48.008 311.853 48.008C313.069 48.008 314.173 47.688 315.165 47.048C316.157 46.376 316.941 45.48 317.517 44.36C318.125 43.208 318.429 41.896 318.429 40.424C318.429 38.984 318.125 37.688 317.517 36.536C316.941 35.384 316.157 34.488 315.165 33.848C314.173 33.208 313.069 32.888 311.853 32.888C310.605 32.888 309.485 33.224 308.493 33.896C307.501 34.536 306.717 35.432 306.141 36.584C305.565 37.704 305.277 39 305.277 40.472ZM352.722 53H346.29V38.888C346.29 36.872 345.938 35.4 345.234 34.472C344.53 33.544 343.554 33.08 342.306 33.08C341.442 33.08 340.562 33.304 339.666 33.752C338.802 34.2 338.018 34.824 337.314 35.624C336.61 36.392 336.098 37.288 335.778 38.312V53H329.346V27.848H335.154V32.504C335.794 31.416 336.61 30.504 337.602 29.768C338.594 29 339.73 28.424 341.01 28.04C342.322 27.624 343.698 27.416 345.138 27.416C346.706 27.416 347.986 27.704 348.978 28.28C350.002 28.824 350.77 29.576 351.282 30.536C351.826 31.464 352.194 32.52 352.386 33.704C352.61 34.888 352.722 36.088 352.722 37.304V53Z" fill="white"/>
<path d="M328.871 41H356.871V44H328.871V41Z" fill="#D66700"/>
<path d="M328.871 23.375H336.871V26.2917H328.871V23.375Z" fill="#D66700"/>
<path d="M328.871 29.2083H352.871V32.1249H328.871V29.2083Z" fill="#D66700"/>
<path d="M328.871 35H356.871V38H328.871V35Z" fill="#D66700"/>
<path d="M328.871 47H354.871V50H328.871V47Z" fill="#D66700"/>
<path d="M297.621 42H327.371V45H297.621V42Z" fill="#D66700"/>
<path d="M297.621 24.375H306.121V27.2917H297.621V24.375Z" fill="#D66700"/>
<path d="M297.621 30.2083H323.121V33.1249H297.621V30.2083Z" fill="#D66700"/>
<path d="M297.621 36H327.371V39H297.621V36Z" fill="#D66700"/>
<path d="M297.621 48H325.246V51H297.621V48Z" fill="#D66700"/>
<path d="M15.5111 91.48C13.4631 91.48 11.6231 91.144 9.99109 90.472C8.35909 89.768 6.96709 88.808 5.81509 87.592C4.66309 86.344 3.76709 84.936 3.12709 83.368C2.51909 81.8 2.21509 80.152 2.21509 78.424C2.21509 76.056 2.74309 73.896 3.79909 71.944C4.88709 69.96 6.42309 68.376 8.40709 67.192C10.3911 66.008 12.7431 65.416 15.4631 65.416C18.1831 65.416 20.5191 66.008 22.4711 67.192C24.4231 68.376 25.8791 69.928 26.8391 71.848L20.5511 73.768C20.0071 72.84 19.2871 72.136 18.3911 71.656C17.4951 71.144 16.5031 70.888 15.4151 70.888C14.1991 70.888 13.0791 71.208 12.0551 71.848C11.0631 72.456 10.2791 73.336 9.70309 74.488C9.12709 75.608 8.83909 76.92 8.83909 78.424C8.83909 79.896 9.12709 81.208 9.70309 82.36C10.3111 83.48 11.1111 84.376 12.1031 85.048C13.0951 85.688 14.1991 86.008 15.4151 86.008C16.1831 86.008 16.9031 85.88 17.5751 85.624C18.2791 85.368 18.9031 85.016 19.4471 84.568C19.9911 84.12 20.3911 83.608 20.6471 83.032L26.9351 84.952C26.3591 86.2 25.5111 87.32 24.3911 88.312C23.3031 89.304 22.0071 90.088 20.5031 90.664C19.0311 91.208 17.3671 91.48 15.5111 91.48ZM30.8448 55.96H37.2768V82.936C37.2768 84.088 37.4688 84.872 37.8528 85.288C38.2368 85.672 38.7648 85.864 39.4368 85.864C39.9488 85.864 40.4768 85.8 41.0208 85.672C41.5648 85.544 42.0448 85.384 42.4608 85.192L43.3248 90.088C42.4608 90.504 41.4528 90.824 40.3008 91.048C39.1488 91.272 38.1088 91.384 37.1808 91.384C35.1648 91.384 33.5968 90.856 32.4768 89.8C31.3888 88.712 30.8448 87.176 30.8448 85.192V55.96ZM45.8872 81.592V65.848H52.3192V80.2C52.3192 82.12 52.6712 83.576 53.3752 84.568C54.0792 85.528 55.1192 86.008 56.4952 86.008C57.3272 86.008 58.1432 85.848 58.9432 85.528C59.7752 85.176 60.5272 84.664 61.1992 83.992C61.9032 83.32 62.4952 82.472 62.9752 81.448V65.848H69.4072V83.8C69.4072 84.472 69.5192 84.952 69.7432 85.24C69.9992 85.528 70.3992 85.704 70.9432 85.768V91C70.3032 91.096 69.7592 91.16 69.3112 91.192C68.8952 91.256 68.5112 91.288 68.1592 91.288C67.0072 91.288 66.0632 91.032 65.3272 90.52C64.6232 89.976 64.2072 89.24 64.0792 88.312L63.9352 86.296C62.8152 87.992 61.3752 89.288 59.6152 90.184C57.8552 91.048 55.9192 91.48 53.8072 91.48C51.2152 91.48 49.2472 90.648 47.9032 88.984C46.5592 87.288 45.8872 84.824 45.8872 81.592ZM90.1031 91.48C88.1831 91.48 86.4711 91.048 84.9671 90.184C83.4631 89.32 82.2791 88.136 81.4151 86.632V91H75.7991V55.96H82.2311V70.264C83.1271 68.76 84.2951 67.576 85.7351 66.712C87.2071 65.848 88.9191 65.416 90.8711 65.416C92.5031 65.416 93.9911 65.768 95.3351 66.472C96.6791 67.144 97.8311 68.088 98.7911 69.304C99.7831 70.52 100.535 71.912 101.047 73.48C101.591 75.048 101.863 76.728 101.863 78.52C101.863 80.312 101.559 81.992 100.951 83.56C100.375 85.128 99.5591 86.52 98.5031 87.736C97.4471 88.92 96.1991 89.848 94.7591 90.52C93.3511 91.16 91.7991 91.48 90.1031 91.48ZM88.3271 86.008C89.3511 86.008 90.2791 85.816 91.1111 85.432C91.9751 85.016 92.7111 84.472 93.3191 83.8C93.9591 83.128 94.4391 82.344 94.7591 81.448C95.1111 80.52 95.2871 79.56 95.2871 78.568C95.2871 77.192 94.9991 75.928 94.4231 74.776C93.8791 73.592 93.1111 72.648 92.1191 71.944C91.1591 71.24 90.0231 70.888 88.7111 70.888C87.7831 70.888 86.8871 71.112 86.0231 71.56C85.1911 71.976 84.4391 72.552 83.7671 73.288C83.1271 74.024 82.6151 74.856 82.2311 75.784V81.784C82.4231 82.424 82.7271 83 83.1431 83.512C83.5911 84.024 84.1031 84.472 84.6791 84.856C85.2551 85.208 85.8471 85.496 86.4551 85.72C87.0951 85.912 87.7191 86.008 88.3271 86.008Z" fill="white"/>
<path d="M328.871 79H356.871V82H328.871V79Z" fill="#D66700"/>
<path d="M328.871 61.375H336.871V64.2917H328.871V61.375Z" fill="#D66700"/>
<path d="M328.871 67.2083H352.871V70.1249H328.871V67.2083Z" fill="#D66700"/>
<path d="M328.871 73H356.871V76H328.871V73Z" fill="#D66700"/>
<path d="M328.871 85H354.871V88H328.871V85Z" fill="#D66700"/>
<path d="M297.621 72H327.371V75H297.621V72Z" fill="#D66700"/>
<path d="M297.621 54.375H306.121V57.2917H297.621V54.375Z" fill="#D66700"/>
<path d="M297.621 60.2083H323.121V63.1249H297.621V60.2083Z" fill="#D66700"/>
<path d="M297.621 66H327.371V69H297.621V66Z" fill="#D66700"/>
<path d="M297.621 78H325.246V81H297.621V78Z" fill="#D66700"/>
</svg>
