<svg width="831" height="369" viewBox="0 0 831 369" fill="none" xmlns="http://www.w3.org/2000/svg">
<g filter="url(#filter0_d_1703_515)">
<path d="M710.544 35.311H120.23C83.1237 35.311 53.043 65.3486 53.043 102.402V230.325C53.043 267.378 83.1237 297.416 120.23 297.416H710.544C747.651 297.416 777.732 267.378 777.732 230.325V102.402C777.732 65.3486 747.651 35.311 710.544 35.311Z" fill="#FF8126"/>
</g>
<path d="M355.385 132.416H369.529V137.566H355.385V132.416Z" fill="#FF8126"/>
<path d="M355.385 142.715H397.819V147.865H355.385V142.715Z" fill="#FF8126"/>
<path d="M355.385 152.941H404.891V158.237H355.385V152.941Z" fill="#FF8126"/>
<path d="M355.385 174.127H401.355V179.424H355.385V174.127Z" fill="#FF8126"/>
<path d="M126.665 165.044C123.044 165.044 119.79 164.45 116.905 163.264C114.019 162.021 111.558 160.326 109.521 158.179C107.485 155.976 105.9 153.49 104.769 150.721C103.694 147.953 103.156 145.043 103.156 141.993C103.156 137.812 104.09 133.998 105.957 130.552C107.881 127.049 110.596 124.252 114.104 122.162C117.612 120.072 121.771 119.026 126.58 119.026C131.389 119.026 135.519 120.072 138.971 122.162C142.422 124.252 144.996 126.992 146.694 130.382L135.576 133.772C134.614 132.134 133.341 130.891 131.757 130.043C130.173 129.139 128.419 128.687 126.495 128.687C124.345 128.687 122.365 129.252 120.554 130.382C118.8 131.456 117.414 133.009 116.396 135.043C115.377 137.021 114.868 139.337 114.868 141.993C114.868 144.592 115.377 146.908 116.396 148.942C117.471 150.919 118.885 152.501 120.639 153.688C122.393 154.818 124.345 155.383 126.495 155.383C127.853 155.383 129.126 155.157 130.314 154.705C131.559 154.253 132.662 153.631 133.624 152.84C134.586 152.049 135.293 151.145 135.746 150.128L146.863 153.518C145.845 155.722 144.346 157.699 142.365 159.45C140.442 161.202 138.15 162.586 135.491 163.603C132.888 164.563 129.946 165.044 126.665 165.044ZM173.985 165.044C170.364 165.044 167.11 164.45 164.225 163.264C161.339 162.021 158.878 160.326 156.841 158.179C154.861 156.032 153.333 153.575 152.258 150.806C151.183 148.038 150.646 145.128 150.646 142.077C150.646 138.97 151.183 136.032 152.258 133.264C153.333 130.495 154.861 128.038 156.841 125.891C158.878 123.744 161.339 122.077 164.225 120.891C167.11 119.648 170.364 119.026 173.985 119.026C177.605 119.026 180.83 119.648 183.659 120.891C186.544 122.077 189.006 123.744 191.042 125.891C193.079 128.038 194.607 130.495 195.625 133.264C196.7 136.032 197.238 138.97 197.238 142.077C197.238 145.128 196.7 148.038 195.625 150.806C194.607 153.575 193.079 156.032 191.042 158.179C189.062 160.326 186.629 162.021 183.744 163.264C180.858 164.45 177.605 165.044 173.985 165.044ZM162.358 142.077C162.358 144.676 162.867 146.993 163.885 149.027C164.904 151.004 166.29 152.558 168.044 153.688C169.798 154.818 171.778 155.383 173.985 155.383C176.135 155.383 178.086 154.818 179.84 153.688C181.594 152.501 182.98 150.919 183.998 148.942C185.073 146.908 185.611 144.592 185.611 141.993C185.611 139.45 185.073 137.162 183.998 135.128C182.98 133.094 181.594 131.512 179.84 130.382C178.086 129.252 176.135 128.687 173.985 128.687C171.778 128.687 169.798 129.281 168.044 130.467C166.29 131.597 164.904 133.179 163.885 135.213C162.867 137.19 162.358 139.478 162.358 142.077ZM225.453 165.044C221.832 165.044 218.579 164.45 215.693 163.264C212.808 162.021 210.346 160.326 208.31 158.179C206.329 156.032 204.802 153.575 203.727 150.806C202.652 148.038 202.114 145.128 202.114 142.077C202.114 138.97 202.652 136.032 203.727 133.264C204.802 130.495 206.329 128.038 208.31 125.891C210.346 123.744 212.808 122.077 215.693 120.891C218.579 119.648 221.832 119.026 225.453 119.026C229.074 119.026 232.299 119.648 235.128 120.891C238.013 122.077 240.475 123.744 242.511 125.891C244.548 128.038 246.076 130.495 247.094 133.264C248.169 136.032 248.707 138.97 248.707 142.077C248.707 145.128 248.169 148.038 247.094 150.806C246.076 153.575 244.548 156.032 242.511 158.179C240.531 160.326 238.098 162.021 235.213 163.264C232.327 164.45 229.074 165.044 225.453 165.044ZM213.826 142.077C213.826 144.676 214.335 146.993 215.354 149.027C216.372 151.004 217.758 152.558 219.512 153.688C221.266 154.818 223.246 155.383 225.453 155.383C227.603 155.383 229.555 154.818 231.309 153.688C233.063 152.501 234.449 150.919 235.467 148.942C236.542 146.908 237.08 144.592 237.08 141.993C237.08 139.45 236.542 137.162 235.467 135.128C234.449 133.094 233.063 131.512 231.309 130.382C229.555 129.252 227.603 128.687 225.453 128.687C223.246 128.687 221.266 129.281 219.512 130.467C217.758 131.597 216.372 133.179 215.354 135.213C214.335 137.19 213.826 139.478 213.826 142.077ZM256.297 102.331H267.669V149.959C267.669 151.993 268.009 153.377 268.688 154.111C269.367 154.789 270.3 155.128 271.489 155.128C272.394 155.128 273.327 155.015 274.289 154.789C275.251 154.563 276.1 154.281 276.835 153.942L278.363 162.586C276.835 163.32 275.053 163.885 273.016 164.281C270.979 164.676 269.141 164.874 267.5 164.874C263.935 164.874 261.163 163.942 259.183 162.078C257.259 160.157 256.297 157.445 256.297 153.942V102.331ZM309.967 165.044C306.516 165.044 303.461 164.281 300.802 162.755C298.199 161.174 296.162 159.055 294.691 156.399V182.247H283.319V119.789H293.248V127.416C294.946 124.817 297.096 122.783 299.698 121.314C302.301 119.789 305.271 119.026 308.609 119.026C311.608 119.026 314.352 119.62 316.842 120.806C319.388 121.992 321.594 123.659 323.461 125.806C325.329 127.896 326.771 130.326 327.79 133.094C328.865 135.806 329.402 138.744 329.402 141.908C329.402 146.202 328.554 150.1 326.856 153.603C325.215 157.106 322.924 159.902 319.982 161.993C317.096 164.027 313.758 165.044 309.967 165.044ZM306.148 155.383C307.902 155.383 309.486 155.015 310.901 154.281C312.315 153.546 313.532 152.558 314.55 151.315C315.625 150.015 316.417 148.575 316.927 146.993C317.492 145.354 317.775 143.659 317.775 141.908C317.775 140.043 317.464 138.32 316.842 136.738C316.276 135.156 315.427 133.772 314.296 132.586C313.164 131.343 311.835 130.382 310.307 129.704C308.836 129.026 307.223 128.687 305.469 128.687C304.394 128.687 303.291 128.885 302.16 129.281C301.085 129.62 300.038 130.128 299.019 130.806C298.001 131.484 297.096 132.275 296.304 133.179C295.568 134.083 295.031 135.072 294.691 136.145V146.569C295.37 148.207 296.275 149.705 297.407 151.06C298.595 152.416 299.953 153.49 301.481 154.281C303.008 155.015 304.564 155.383 306.148 155.383ZM363.585 129.62C360.133 129.62 357.05 130.298 354.334 131.654C351.618 132.953 349.666 134.846 348.478 137.332V164.196H337.106V119.789H347.544V129.281C349.129 126.23 351.137 123.829 353.57 122.077C356.003 120.326 358.577 119.365 361.293 119.196C361.915 119.196 362.396 119.196 362.736 119.196C363.075 119.196 363.358 119.224 363.585 119.281V129.62ZM389.885 165.044C386.264 165.044 383.01 164.45 380.125 163.264C377.239 162.021 374.778 160.326 372.741 158.179C370.761 156.032 369.234 153.575 368.159 150.806C367.084 148.038 366.546 145.128 366.546 142.077C366.546 138.97 367.084 136.032 368.159 133.264C369.234 130.495 370.761 128.038 372.741 125.891C374.778 123.744 377.239 122.077 380.125 120.891C383.01 119.648 386.264 119.026 389.885 119.026C393.506 119.026 396.731 119.648 399.56 120.891C402.445 122.077 404.906 123.744 406.943 125.891C408.98 128.038 410.508 130.495 411.526 133.264C412.601 136.032 413.139 138.97 413.139 142.077C413.139 145.128 412.601 148.038 411.526 150.806C410.508 153.575 408.98 156.032 406.943 158.179C404.963 160.326 402.53 162.021 399.645 163.264C396.759 164.45 393.506 165.044 389.885 165.044ZM378.258 142.077C378.258 144.676 378.767 146.993 379.786 149.027C380.804 151.004 382.19 152.558 383.944 153.688C385.698 154.818 387.678 155.383 389.885 155.383C392.035 155.383 393.987 154.818 395.741 153.688C397.495 152.501 398.881 150.919 399.899 148.942C400.974 146.908 401.512 144.592 401.512 141.993C401.512 139.45 400.974 137.162 399.899 135.128C398.881 133.094 397.495 131.512 395.741 130.382C393.987 129.252 392.035 128.687 389.885 128.687C387.678 128.687 385.698 129.281 383.944 130.467C382.19 131.597 380.804 133.179 379.786 135.213C378.767 137.19 378.258 139.478 378.258 142.077ZM418.098 141.993C418.098 137.699 418.947 133.829 420.644 130.382C422.342 126.88 424.69 124.111 427.688 122.077C430.687 120.043 434.11 119.026 437.957 119.026C441.239 119.026 444.181 119.846 446.784 121.484C449.443 123.066 451.508 125.1 452.979 127.586V102.331H464.351V151.484C464.351 152.671 464.549 153.518 464.945 154.027C465.341 154.535 466.02 154.846 466.982 154.959V164.196C465.002 164.592 463.389 164.789 462.145 164.789C460.108 164.789 458.411 164.281 457.053 163.264C455.751 162.247 455.016 160.919 454.846 159.281L454.676 156.484C453.036 159.253 450.801 161.371 447.972 162.84C445.199 164.309 442.286 165.044 439.23 165.044C436.175 165.044 433.346 164.45 430.743 163.264C428.197 162.078 425.963 160.439 424.039 158.349C422.172 156.258 420.701 153.829 419.626 151.06C418.607 148.236 418.098 145.213 418.098 141.993ZM452.979 147.925V137.332C452.413 135.693 451.508 134.224 450.263 132.925C449.018 131.625 447.632 130.608 446.105 129.874C444.577 129.083 443.049 128.687 441.522 128.687C439.768 128.687 438.184 129.055 436.769 129.789C435.355 130.524 434.11 131.512 433.035 132.755C432.017 133.998 431.224 135.439 430.659 137.077C430.149 138.716 429.895 140.439 429.895 142.247C429.895 144.055 430.178 145.778 430.743 147.416C431.366 148.998 432.243 150.383 433.374 151.569C434.506 152.755 435.807 153.688 437.278 154.366C438.806 155.044 440.447 155.383 442.201 155.383C443.276 155.383 444.351 155.213 445.426 154.874C446.557 154.479 447.604 153.97 448.566 153.349C449.584 152.671 450.461 151.88 451.197 150.976C451.989 150.015 452.583 148.998 452.979 147.925ZM475.091 147.586V119.789H486.463V145.128C486.463 148.518 487.085 151.089 488.33 152.84C489.575 154.535 491.414 155.383 493.847 155.383C495.318 155.383 496.76 155.1 498.175 154.535C499.646 153.914 500.975 153.01 502.164 151.823C503.408 150.637 504.455 149.14 505.304 147.332V119.789H516.676V151.484C516.676 152.671 516.874 153.518 517.27 154.027C517.723 154.535 518.43 154.846 519.392 154.959V164.196C518.26 164.366 517.298 164.479 516.506 164.535C515.771 164.648 515.092 164.705 514.469 164.705C512.433 164.705 510.764 164.253 509.462 163.349C508.217 162.388 507.482 161.089 507.256 159.45L507.001 155.891C505.021 158.885 502.475 161.174 499.363 162.755C496.251 164.281 492.828 165.044 489.094 165.044C484.511 165.044 481.031 163.575 478.655 160.637C476.279 157.642 475.091 153.292 475.091 147.586ZM548.685 165.044C545.064 165.044 541.811 164.45 538.926 163.264C536.04 162.021 533.579 160.326 531.542 158.179C529.505 155.976 527.921 153.49 526.789 150.721C525.714 147.953 525.177 145.043 525.177 141.993C525.177 137.812 526.111 133.998 527.978 130.552C529.901 127.049 532.617 124.252 536.125 122.162C539.633 120.072 543.791 119.026 548.601 119.026C553.41 119.026 557.54 120.072 560.991 122.162C564.443 124.252 567.017 126.992 568.714 130.382L557.597 133.772C556.635 132.134 555.362 130.891 553.778 130.043C552.193 129.139 550.439 128.687 548.516 128.687C546.366 128.687 544.385 129.252 542.575 130.382C540.821 131.456 539.435 133.009 538.416 135.043C537.398 137.021 536.889 139.337 536.889 141.993C536.889 144.592 537.398 146.908 538.416 148.942C539.491 150.919 540.906 152.501 542.66 153.688C544.414 154.818 546.366 155.383 548.516 155.383C549.874 155.383 551.147 155.157 552.335 154.705C553.579 154.253 554.683 153.631 555.645 152.84C556.606 152.049 557.314 151.145 557.766 150.128L568.884 153.518C567.866 155.722 566.366 157.699 564.386 159.45C562.462 161.202 560.171 162.586 557.512 163.603C554.909 164.563 551.967 165.044 548.685 165.044ZM602.529 161.908C601.567 162.304 600.407 162.755 599.049 163.264C597.691 163.772 596.22 164.168 594.636 164.45C593.109 164.789 591.553 164.959 589.968 164.959C587.875 164.959 585.951 164.592 584.197 163.857C582.443 163.123 581.029 161.965 579.954 160.383C578.936 158.744 578.426 156.625 578.426 154.027V128.518H572.57V119.789H578.426V105.382H589.799V119.789H599.134V128.518H589.799V150.213C589.855 151.738 590.28 152.84 591.072 153.518C591.864 154.196 592.854 154.535 594.042 154.535C595.23 154.535 596.39 154.337 597.522 153.942C598.653 153.546 599.559 153.207 600.237 152.925L602.529 161.908ZM608.452 164.196V119.789H619.824V164.196H608.452ZM608.452 113.603V102.331H619.824V113.603H608.452ZM650.623 165.044C647.002 165.044 643.748 164.45 640.863 163.264C637.977 162.021 635.516 160.326 633.479 158.179C631.499 156.032 629.971 153.575 628.896 150.806C627.821 148.038 627.284 145.128 627.284 142.077C627.284 138.97 627.821 136.032 628.896 133.264C629.971 130.495 631.499 128.038 633.479 125.891C635.516 123.744 637.977 122.077 640.863 120.891C643.748 119.648 647.002 119.026 650.623 119.026C654.244 119.026 657.469 119.648 660.298 120.891C663.183 122.077 665.644 123.744 667.681 125.891C669.718 128.038 671.246 130.495 672.264 133.264C673.339 136.032 673.876 138.97 673.876 142.077C673.876 145.128 673.339 148.038 672.264 150.806C671.246 153.575 669.718 156.032 667.681 158.179C665.701 160.326 663.268 162.021 660.382 163.264C657.497 164.45 654.244 165.044 650.623 165.044ZM638.996 142.077C638.996 144.676 639.505 146.993 640.523 149.027C641.542 151.004 642.928 152.558 644.682 153.688C646.436 154.818 648.416 155.383 650.623 155.383C652.773 155.383 654.725 154.818 656.479 153.688C658.232 152.501 659.619 150.919 660.637 148.942C661.712 146.908 662.25 144.592 662.25 141.993C662.25 139.45 661.712 137.162 660.637 135.128C659.619 133.094 658.232 131.512 656.479 130.382C654.725 129.252 652.773 128.687 650.623 128.687C648.416 128.687 646.436 129.281 644.682 130.467C642.928 131.597 641.542 133.179 640.523 135.213C639.505 137.19 638.996 139.478 638.996 142.077ZM722.883 164.196H711.51V139.281C711.51 135.721 710.888 133.122 709.643 131.484C708.398 129.846 706.673 129.026 704.466 129.026C702.938 129.026 701.383 129.422 699.798 130.213C698.271 131.004 696.885 132.106 695.64 133.518C694.395 134.874 693.49 136.456 692.924 138.264V164.196H681.552V119.789H691.821V128.009C692.952 126.089 694.395 124.478 696.149 123.179C697.903 121.823 699.911 120.806 702.175 120.128C704.494 119.394 706.927 119.026 709.473 119.026C712.246 119.026 714.509 119.535 716.263 120.552C718.073 121.512 719.431 122.84 720.336 124.535C721.298 126.173 721.949 128.038 722.288 130.128C722.684 132.219 722.883 134.337 722.883 136.484V164.196Z" fill="white"/>
<path d="M680.713 143.01H730.219V148.306H680.713V143.01Z" fill="#FF8126"/>
<path d="M680.713 111.892H694.858V117.041H680.713V111.892Z" fill="#FF8126"/>
<path d="M680.713 122.191H723.147V127.34H680.713V122.191Z" fill="#FF8126"/>
<path d="M680.713 132.416H730.219V137.713H680.713V132.416Z" fill="#FF8126"/>
<path d="M680.713 153.603H726.683V158.9H680.713V153.603Z" fill="#FF8126"/>
<path d="M625.461 144.775H678.061V150.072H625.461V144.775Z" fill="#FF8126"/>
<path d="M625.461 113.657H640.49V118.807H625.461V113.657Z" fill="#FF8126"/>
<path d="M625.461 123.956H670.547V129.106H625.461V123.956Z" fill="#FF8126"/>
<path d="M625.461 134.182H678.061V139.478H625.461V134.182Z" fill="#FF8126"/>
<path d="M625.461 155.368H674.304V160.665H625.461V155.368Z" fill="#FF8126"/>
<path d="M126.665 237.431C123.044 237.431 119.79 236.838 116.905 235.652C114.019 234.409 111.558 232.714 109.521 230.567C107.485 228.363 105.9 225.877 104.769 223.109C103.694 220.341 103.156 217.431 103.156 214.38C103.156 210.199 104.09 206.386 105.957 202.939C107.881 199.437 110.596 196.64 114.104 194.55C117.612 192.459 121.771 191.414 126.58 191.414C131.389 191.414 135.519 192.459 138.971 194.55C142.422 196.64 144.996 199.38 146.694 202.77L135.576 206.16C134.614 204.521 133.341 203.278 131.757 202.431C130.173 201.527 128.419 201.075 126.495 201.075C124.345 201.075 122.365 201.64 120.554 202.77C118.8 203.843 117.414 205.397 116.396 207.431C115.377 209.408 114.868 211.725 114.868 214.38C114.868 216.979 115.377 219.295 116.396 221.329C117.471 223.307 118.885 224.889 120.639 226.075C122.393 227.205 124.345 227.77 126.495 227.77C127.853 227.77 129.126 227.544 130.314 227.092C131.559 226.64 132.662 226.019 133.624 225.228C134.586 224.437 135.293 223.533 135.746 222.516L146.863 225.906C145.845 228.109 144.346 230.087 142.365 231.838C140.442 233.589 138.15 234.974 135.491 235.991C132.888 236.951 129.946 237.431 126.665 237.431ZM153.776 174.719H165.148V222.346C165.148 224.38 165.488 225.764 166.167 226.499C166.846 227.177 167.779 227.516 168.968 227.516C169.873 227.516 170.806 227.403 171.768 227.177C172.73 226.951 173.579 226.668 174.314 226.329L175.842 234.974C174.314 235.708 172.532 236.273 170.495 236.668C168.458 237.064 166.62 237.262 164.979 237.262C161.414 237.262 158.642 236.33 156.662 234.465C154.738 232.544 153.776 229.832 153.776 226.329V174.719ZM180.372 219.973V192.177H191.744V217.516C191.744 220.906 192.367 223.476 193.611 225.228C194.856 226.923 196.695 227.77 199.128 227.77C200.599 227.77 202.042 227.488 203.456 226.923C204.927 226.301 206.257 225.397 207.445 224.211C208.69 223.024 209.736 221.527 210.585 219.719V192.177H221.957V223.872C221.957 225.058 222.155 225.906 222.551 226.414C223.004 226.923 223.711 227.233 224.673 227.346V236.584C223.542 236.753 222.58 236.866 221.788 236.923C221.052 237.036 220.373 237.092 219.751 237.092C217.714 237.092 216.045 236.64 214.744 235.736C213.499 234.776 212.763 233.476 212.537 231.838L212.282 228.279C210.302 231.273 207.756 233.561 204.644 235.143C201.533 236.668 198.109 237.431 194.375 237.431C189.792 237.431 186.313 235.962 183.937 233.024C181.56 230.03 180.372 225.68 180.372 219.973ZM258.55 237.431C255.155 237.431 252.128 236.668 249.469 235.143C246.81 233.618 244.716 231.527 243.189 228.872V236.584H233.259V174.719H244.631V199.973C246.216 197.318 248.281 195.227 250.827 193.702C253.429 192.177 256.456 191.414 259.908 191.414C262.793 191.414 265.424 192.035 267.8 193.278C270.177 194.465 272.213 196.131 273.911 198.278C275.665 200.425 276.994 202.883 277.9 205.651C278.861 208.42 279.342 211.386 279.342 214.55C279.342 217.714 278.805 220.68 277.73 223.448C276.711 226.216 275.269 228.674 273.402 230.821C271.535 232.911 269.328 234.55 266.782 235.736C264.292 236.866 261.548 237.431 258.55 237.431ZM255.41 227.77C257.22 227.77 258.861 227.431 260.332 226.753C261.86 226.019 263.161 225.058 264.236 223.872C265.367 222.685 266.216 221.301 266.782 219.719C267.404 218.081 267.715 216.386 267.715 214.634C267.715 212.205 267.206 209.973 266.188 207.939C265.226 205.849 263.868 204.182 262.114 202.939C260.417 201.696 258.408 201.075 256.089 201.075C254.448 201.075 252.864 201.47 251.336 202.261C249.865 202.996 248.535 204.013 247.347 205.312C246.216 206.612 245.31 208.081 244.631 209.719V220.312C244.971 221.442 245.508 222.459 246.244 223.363C247.036 224.267 247.941 225.058 248.96 225.736C249.978 226.358 251.025 226.866 252.1 227.262C253.231 227.601 254.335 227.77 255.41 227.77Z" fill="white"/>
<path d="M680.713 215.397H730.219V220.694H680.713V215.397Z" fill="#FF8126"/>
<path d="M680.713 184.279H694.858V189.429H680.713V184.279Z" fill="#FF8126"/>
<path d="M680.713 194.578H723.147V199.728H680.713V194.578Z" fill="#FF8126"/>
<path d="M680.713 204.804H730.219V210.1H680.713V204.804Z" fill="#FF8126"/>
<path d="M680.713 225.99H726.683V231.287H680.713V225.99Z" fill="#FF8126"/>
<path d="M625.461 203.038H678.061V208.335H625.461V203.038Z" fill="#FF8126"/>
<path d="M625.461 171.92H640.49V177.071H625.461V171.92Z" fill="#FF8126"/>
<path d="M625.461 182.219H670.547V187.369H625.461V182.219Z" fill="#FF8126"/>
<path d="M625.461 192.445H678.061V197.742H625.461V192.445Z" fill="#FF8126"/>
<path d="M625.461 213.632H674.304V218.928H625.461V213.632Z" fill="#FF8126"/>
<defs>
<filter id="filter0_d_1703_515" x="23.043" y="15.311" width="784.689" height="322.105" filterUnits="userSpaceOnUse" color-interpolation-filters="sRGB">
<feFlood flood-opacity="0" result="BackgroundImageFix"/>
<feColorMatrix in="SourceAlpha" type="matrix" values="0 0 0 0 0 0 0 0 0 0 0 0 0 0 0 0 0 0 127 0" result="hardAlpha"/>
<feOffset dy="10"/>
<feGaussianBlur stdDeviation="15"/>
<feComposite in2="hardAlpha" operator="out"/>
<feColorMatrix type="matrix" values="0 0 0 0 0 0 0 0 0 0 0 0 0 0 0 0 0 0 0.25 0"/>
<feBlend mode="normal" in2="BackgroundImageFix" result="effect1_dropShadow_1703_515"/>
<feBlend mode="normal" in="SourceGraphic" in2="effect1_dropShadow_1703_515" result="shape"/>
</filter>
</defs>
</svg>
