<svg width="179" height="43" viewBox="0 0 179 43" fill="none" xmlns="http://www.w3.org/2000/svg">
<path d="M89.5662 23.3405C85.9567 23.3405 83.0148 26.0811 83.0148 29.8593C83.0148 33.6131 85.9567 36.3782 89.5662 36.3782C93.1757 36.3782 96.1176 33.6131 96.1176 29.8593C96.1176 26.0811 93.1757 23.3405 89.5662 23.3405ZM89.5662 33.8108C87.5881 33.8108 85.8815 32.1815 85.8815 29.8593C85.8815 27.5127 87.5881 25.9079 89.5662 25.9079C91.5444 25.9079 93.2494 27.5127 93.2494 29.8593C93.2494 32.1799 91.5444 33.8108 89.5662 33.8108ZM75.2725 23.3405C71.6631 23.3405 68.7212 26.0811 68.7212 29.8593C68.7212 33.6131 71.6631 36.3782 75.2725 36.3782C78.882 36.3782 81.8239 33.6131 81.8239 29.8593C81.8255 26.0811 78.882 23.3405 75.2725 23.3405ZM75.2725 33.8108C73.2944 33.8108 71.5894 32.1815 71.5894 29.8593C71.5894 27.5127 73.2959 25.9079 75.2725 25.9079C77.2507 25.9079 78.9557 27.5127 78.9557 29.8593C78.9572 32.1799 77.2507 33.8108 75.2725 33.8108ZM58.2718 28.1059H64.8983C64.7004 29.6616 64.1817 30.7974 63.3898 31.5883C62.426 32.5509 60.9175 33.6131 58.2718 33.6131C54.1927 33.6131 51.0037 30.3284 51.0037 26.2543C51.0037 22.1802 54.1927 18.8955 58.2718 18.8955C60.4724 18.8955 62.0792 19.76 63.2655 20.8713L65.2191 18.9201C63.5632 17.3398 61.3625 16.1289 58.2718 16.1289C52.6841 16.1289 47.9866 20.672 47.9866 26.2528C47.9866 31.8335 52.6841 36.3766 58.2718 36.3766C61.2873 36.3766 63.5632 35.3895 65.3434 33.5364C67.1727 31.7094 67.742 29.1405 67.742 27.0667C67.742 26.4244 67.6929 25.8313 67.5932 25.3377H58.2718V28.1059ZM127.803 27.4882C127.26 26.0305 125.603 23.339 122.216 23.339C118.853 23.339 116.06 25.9815 116.06 29.8578C116.06 33.5119 118.829 36.3766 122.538 36.3766C125.529 36.3766 127.26 34.5496 127.977 33.4874L125.752 32.0052C125.01 33.0919 123.996 33.8077 122.538 33.8077C121.079 33.8077 120.041 33.141 119.374 31.832L128.101 28.227L127.803 27.4882ZM118.902 29.6616C118.829 27.1433 120.856 25.8589 122.314 25.8589C123.451 25.8589 124.415 26.426 124.737 27.2414L118.902 29.6616ZM111.806 35.9827H114.675V16.8217H111.806V35.9827ZM107.109 24.7967H107.011C106.368 24.0318 105.132 23.339 103.574 23.339C100.31 23.339 97.3193 26.2037 97.3193 29.8823C97.3193 33.5364 100.31 36.3766 103.574 36.3766C105.132 36.3766 106.368 35.6854 107.011 34.8945H107.109V35.8325C107.109 38.3263 105.774 39.6598 103.622 39.6598C101.866 39.6598 100.778 38.3999 100.333 37.3392L97.8364 38.3769C98.5531 40.1058 100.458 42.2287 103.622 42.2287C106.984 42.2287 109.828 40.253 109.828 35.4386V23.7345H107.109V24.7967ZM103.822 33.8108C101.843 33.8108 100.187 32.1569 100.187 29.8839C100.187 27.5878 101.843 25.9079 103.822 25.9079C105.775 25.9079 107.307 27.5863 107.307 29.8839C107.307 32.1554 105.775 33.8108 103.822 33.8108ZM141.238 16.8217H134.376V35.9827H137.238V28.7236H141.236C144.41 28.7236 147.53 26.429 147.53 22.7734C147.53 19.1178 144.411 16.8217 141.238 16.8217ZM141.311 26.0566H137.238V19.4887H141.311C143.452 19.4887 144.668 21.2591 144.668 22.7734C144.668 24.2571 143.452 26.0566 141.311 26.0566ZM159.009 23.3053C156.936 23.3053 154.789 24.2173 153.9 26.239L156.443 27.2996C156.986 26.239 157.998 25.8941 159.06 25.8941C160.54 25.8941 162.046 26.7816 162.07 28.3588V28.5565C161.552 28.2607 160.441 27.8162 159.084 27.8162C156.345 27.8162 153.555 29.3198 153.555 32.1309C153.555 34.6952 155.801 36.346 158.318 36.346C160.244 36.346 161.305 35.483 161.971 34.4729H162.069V35.952H164.833V28.6056C164.833 25.2028 162.291 23.3053 159.009 23.3053ZM158.662 33.8062C157.724 33.8062 156.415 33.3372 156.415 32.1799C156.415 30.7008 158.045 30.1337 159.451 30.1337C160.709 30.1337 161.302 30.405 162.067 30.7744C161.846 32.5493 160.316 33.8062 158.662 33.8062ZM174.903 23.7237L171.621 32.0313H171.522L168.117 23.7237H165.032L170.141 35.3344L167.228 41.7934H170.215L178.089 23.7237H174.903ZM149.11 35.9827H151.974V16.8217H149.11V35.9827Z" fill="white"/>
<path d="M57.7055 5.00724H53.2427V6.11235H56.5867C56.4962 7.01055 56.1355 7.71715 55.5324 8.23062C54.9278 8.7441 54.1558 9.0016 53.2427 9.0016C52.2391 9.0016 51.3904 8.6552 50.6967 7.96086C50.0154 7.25426 49.667 6.38212 49.667 5.32758C49.667 4.27458 50.0154 3.40091 50.6967 2.69431C51.3904 2.0015 52.2391 1.6551 53.2427 1.6551C53.7568 1.6551 54.2464 1.744 54.696 1.93713C55.1457 2.13025 55.5063 2.40002 55.7887 2.74642L56.6374 1.89881C56.2522 1.46197 55.7626 1.12783 55.1595 0.884123C54.5548 0.640415 53.9241 0.523926 53.2427 0.523926C51.9045 0.523926 50.7735 0.986818 49.8481 1.91107C48.9212 2.83685 48.4592 3.97876 48.4592 5.32758C48.4592 6.67641 48.9212 7.81984 49.8481 8.7441C50.7735 9.66988 51.9045 10.1312 53.2427 10.1312C54.6438 10.1312 55.7626 9.68214 56.6251 8.77015C57.3832 8.01297 57.7699 6.98449 57.7699 5.70004C57.7699 5.48239 57.7438 5.25095 57.7055 5.00724Z" fill="white"/>
<path d="M59.4673 0.729319V9.92586H64.8432V8.79621H60.6505V5.88091H64.4303V4.7758H60.6505V1.86049H64.8432V0.729319H59.4673Z" fill="white"/>
<path d="M72.4028 1.86049V0.729319H66.0754V1.86049H68.6475V9.92586H69.8307V1.86049H72.4028Z" fill="white"/>
<path d="M78.1653 0.729319H76.982V9.92586H78.1653V0.729319Z" fill="white"/>
<path d="M85.9843 1.86049V0.729319H79.657V1.86049H82.229V9.92586H83.4123V1.86049H85.9843Z" fill="white"/>
<path d="M97.9577 1.92486C97.0445 0.986818 95.9258 0.523926 94.5876 0.523926C93.2509 0.523926 92.1306 0.986818 91.2175 1.91107C90.3044 2.82306 89.8547 3.9665 89.8547 5.32758C89.8547 6.6902 90.3044 7.83211 91.2175 8.7441C92.1306 9.66988 93.2509 10.1312 94.5876 10.1312C95.912 10.1312 97.0445 9.66988 97.9577 8.7441C98.8708 7.83211 99.3204 6.6902 99.3204 5.32758C99.3204 3.97876 98.8708 2.83685 97.9577 1.92486ZM92.0677 2.69431C92.7491 2.0015 93.5839 1.6551 94.5876 1.6551C95.5912 1.6551 96.4261 2.0015 97.0952 2.69431C97.7766 3.37638 98.1111 4.26232 98.1111 5.32758C98.1111 6.39438 97.7766 7.28031 97.0952 7.96086C96.4261 8.6552 95.5912 9.0016 94.5876 9.0016C93.5839 9.0016 92.7491 8.6552 92.0677 7.96086C91.3986 7.26805 91.064 6.39438 91.064 5.32758C91.064 4.26232 91.3986 3.38865 92.0677 2.69431Z" fill="white"/>
<path d="M102.163 4.19795L102.112 2.42455H102.163L106.845 9.92586H108.079V0.729319H106.895V6.11236L106.948 7.88423H106.895L102.42 0.729319H100.981V9.92586H102.163V4.19795Z" fill="white"/>
<path d="M16.7939 19.7728L0.454555 37.093C0.45609 37.096 0.45609 37.0991 0.457624 37.1022C0.957918 38.9844 2.67826 40.3685 4.71933 40.3685C5.53576 40.3685 6.30155 40.1477 6.95838 39.7615L7.01056 39.7308L25.4017 29.1318L16.7939 19.7728Z" fill="#EB4335"/>
<path d="M33.3255 16.8239L33.3101 16.8132L25.3699 12.2149L16.4244 20.1653L25.4006 29.1289L33.2994 24.5781C34.6837 23.8317 35.6229 22.374 35.6229 20.6926C35.6229 19.0234 34.6959 17.5719 33.3255 16.8239Z" fill="#FABC13"/>
<path d="M0.455082 4.21998C0.356865 4.58171 0.304688 4.9603 0.304688 5.35422V35.9588C0.304688 36.3527 0.354803 36.7328 0.454555 37.093L17.3561 20.2158L0.455082 4.21998Z" fill="#547DBF"/>
<path d="M16.9136 20.6558L25.371 12.2118L6.99981 1.5745C6.33224 1.17445 5.55418 0.944536 4.71933 0.944536C2.67826 0.944536 0.956384 2.33168 0.454555 4.21544L0.455082 4.21998L16.9136 20.6558Z" fill="#30A851"/>
</svg>
