<svg width="313" height="38" viewBox="0 0 313 38" fill="none" xmlns="http://www.w3.org/2000/svg">
<path d="M1.52143 23.2021L3.32143 23.2013L4.57586 7.04997L2.77586 7.05076L3.23303 1.16449L19.037 1.15757C22.133 1.15622 24.445 1.82516 25.9729 3.16441C27.5027 4.47974 28.1524 6.62093 27.9219 9.58799C27.6915 12.5551 26.7082 14.7089 24.9722 16.0496C23.238 17.3664 20.8228 18.0254 17.7268 18.0268L13.8028 18.0285L13.4014 23.1969L16.8574 23.1954L16.4003 29.0817L1.06426 29.0884L1.52143 23.2021ZM15.4227 12.9313C16.8147 12.9307 17.5702 12.1647 17.6891 10.6333L17.7895 9.34119C17.8508 8.55157 17.7154 7.97738 17.3833 7.61862C17.077 7.23592 16.5759 7.04472 15.8799 7.04503L14.6559 7.04556L14.1987 12.9318L15.4227 12.9313ZM37.5562 29.5749C34.1482 29.5764 31.553 28.6922 29.7705 26.9224C27.9899 25.1286 27.2325 22.5209 27.4982 19.0992C27.764 15.6775 28.9256 13.0809 30.9831 11.3094C33.0425 9.51397 35.7762 8.61551 39.1842 8.61402C42.6402 8.6125 45.2456 9.5206 47.0003 11.3383C48.757 13.1321 49.5043 15.7159 49.2422 19.0897C48.9765 22.5114 47.8139 25.12 45.7545 26.9154C43.697 28.6869 40.9642 29.5734 37.5562 29.5749ZM38.0524 23.1861C38.7484 23.1858 39.2784 23.0061 39.6422 22.6471C40.032 22.2641 40.2575 21.6778 40.3188 20.8881L40.5976 17.2989C40.6589 16.5093 40.5235 15.9351 40.1914 15.5764C39.8851 15.1937 39.384 15.0025 38.688 15.0028C37.992 15.0031 37.4491 15.1947 37.0594 15.5777C36.6955 15.9368 36.4829 16.5112 36.4216 17.3008L36.1428 20.89C36.0815 21.6796 36.204 22.2657 36.5102 22.6484C36.8424 23.0072 37.3564 23.1864 38.0524 23.1861ZM49.3077 31.1489L50.8917 31.1482L52.1461 14.9969L50.5621 14.9976L51.0193 9.11131L60.8833 9.10699L60.6937 11.5476C61.3532 10.7817 62.1741 10.0994 63.1566 9.5008C64.1631 8.90218 65.2783 8.6026 66.5023 8.60206C68.9503 8.60099 70.7157 9.50945 71.7984 11.3274C72.9052 13.1454 73.3285 15.7294 73.0683 19.0793C72.8081 22.4292 71.9834 25.0137 70.5942 26.8327C69.2289 28.6518 67.3223 29.5619 64.8743 29.5629C63.6503 29.5635 62.5816 29.2649 61.668 28.6671C60.7785 28.0693 60.0634 27.3877 59.5229 26.6222L59.1717 31.1446L61.6557 31.1435L61.1985 37.0298L48.8505 37.0352L49.3077 31.1489ZM61.8785 23.1757C62.5745 23.1754 63.1045 22.9957 63.4683 22.6367C63.8581 22.2536 64.0836 21.6673 64.1449 20.8777L64.4237 17.2885C64.485 16.4989 64.3496 15.9247 64.0175 15.5659C63.7112 15.1832 63.2101 14.992 62.5141 14.9924C61.8181 14.9927 61.2752 15.1843 60.8855 15.5673C60.5216 15.9264 60.309 16.5007 60.2477 17.2903L59.9689 20.8795C59.9076 21.6692 60.0301 22.2553 60.3363 22.638C60.6685 22.9968 61.1825 23.176 61.8785 23.1757ZM73.6519 34.835L75.9727 29.0556L74.1367 29.0564L74.5938 23.1701L80.2098 23.1677L79.7527 29.054L76.7479 34.8337L73.6519 34.835ZM104.119 29.5458C101.815 29.5468 99.6457 29.3563 97.6114 28.9744C95.603 28.5685 94.0663 28.1145 93.0014 27.6125L93.5533 20.5059L101.473 20.5025C101.416 21.2442 101.542 21.7825 101.852 22.1174C102.162 22.4522 102.761 22.6195 103.649 22.6191C104.393 22.6187 104.929 22.5108 105.258 22.2953C105.613 22.0559 105.807 21.7089 105.843 21.2543C105.872 20.8714 105.742 20.5485 105.45 20.2854C105.16 19.9984 104.643 19.7115 103.897 19.4247L100.885 18.3493C98.2986 17.3455 96.4706 16.1619 95.4005 14.7985C94.3545 13.4351 93.9216 11.5929 94.1018 9.27191C94.3211 6.44841 95.4114 4.30646 97.3728 2.84605C99.36 1.36169 102.526 0.618566 106.87 0.616665C108.958 0.615752 110.897 0.830247 112.687 1.26015C114.504 1.66612 115.949 2.21581 117.023 2.90923L116.524 9.33388L109.324 9.33703C109.417 8.14063 108.72 7.54276 107.232 7.54341C106.512 7.54373 105.988 7.63966 105.661 7.83122C105.36 7.99884 105.192 8.30997 105.157 8.7646C105.125 9.17138 105.268 9.49433 105.586 9.73346C105.927 9.97259 106.483 10.2236 107.255 10.4864L110.303 11.5618C112.781 12.4221 114.541 13.5459 115.585 14.9332C116.655 16.2966 117.104 18.091 116.931 20.3163C116.695 23.3551 115.485 25.6526 113.3 27.2089C111.139 28.7651 108.079 29.544 104.119 29.5458ZM116.878 31.1194L118.462 31.1187L119.716 14.9673L118.132 14.968L118.59 9.08174L128.454 9.07742L128.264 11.5181C128.923 10.7521 129.744 10.0698 130.727 9.47123C131.733 8.87261 132.849 8.57303 134.073 8.57249C136.521 8.57142 138.286 9.47988 139.369 11.2979C140.476 13.1158 140.899 15.6998 140.639 19.0497C140.378 22.3996 139.554 24.9841 138.164 26.8032C136.799 28.6222 134.893 29.5323 132.445 29.5334C131.221 29.5339 130.152 29.2353 129.238 28.6375C128.349 28.0397 127.634 27.3581 127.093 26.5927L126.742 31.1151L129.226 31.114L128.769 37.0002L116.421 37.0056L116.878 31.1194ZM129.449 23.1461C130.145 23.1458 130.675 22.9661 131.039 22.6071C131.428 22.2241 131.654 21.6378 131.715 20.8481L131.994 17.259C132.055 16.4693 131.92 15.8951 131.588 15.5364C131.282 15.1537 130.78 14.9625 130.084 14.9628C129.388 14.9631 128.846 15.1547 128.456 15.5377C128.092 15.8968 127.879 16.4712 127.818 17.2608L127.539 20.85C127.478 21.6396 127.6 22.2258 127.907 22.6085C128.239 22.9672 128.753 23.1464 129.449 23.1461ZM140.876 29.0631L141.336 23.1409L142.92 23.1402L144.175 6.98889L142.591 6.98958L143.048 1.1033L152.912 1.09899L151.2 23.1366L152.784 23.1359L152.324 29.0581L140.876 29.0631ZM174.91 23.1262L174.453 29.0125L164.949 29.0167L165.138 26.576C164.551 27.342 163.754 28.0242 162.748 28.6228C161.765 29.2215 160.59 29.5211 159.222 29.5217C157.422 29.5224 156.043 29.0445 155.085 28.0878C154.128 27.1312 153.717 25.7795 153.852 24.0327C154.204 19.5103 158.236 17.1877 165.949 17.0646C165.94 16.2511 165.671 15.7009 165.141 15.414C164.614 15.1032 163.69 14.9481 162.37 14.9487C161.29 14.9491 160.116 15.0693 158.85 15.3091C157.609 15.525 156.458 15.8246 155.396 16.2079L155.909 9.60377C157.205 9.29215 158.605 9.0403 160.108 8.84823C161.61 8.65615 163.07 8.55981 164.486 8.55919C168.062 8.55762 170.568 9.20256 172.003 10.494C173.439 11.7854 174.052 13.7831 173.842 16.4869L173.326 23.1269L174.91 23.1262ZM165.601 20.618C164.521 20.6184 163.67 20.7624 163.048 21.0498C162.449 21.3372 162.124 21.8158 162.072 22.4858C162.041 22.8926 162.135 23.2275 162.354 23.4906C162.6 23.7298 162.95 23.8493 163.406 23.8491C164.03 23.8488 164.531 23.5854 164.908 23.0588C165.285 22.5323 165.51 21.7904 165.584 20.8333L165.601 20.618ZM184.322 29.5107C181.298 29.512 178.419 29.0347 175.686 28.0788L176.098 22.7668L181.93 22.7643L181.903 23.1232C181.813 24.2717 182.501 24.8457 183.965 24.845C185.261 24.8445 185.943 24.4015 186.012 23.5162C186.049 23.0376 185.885 22.6788 185.519 22.4397C185.178 22.2006 184.546 21.9975 183.623 21.8304L181.848 21.5081C178.132 20.8398 176.413 18.711 176.692 15.1218C176.854 13.0401 177.771 11.4246 179.444 10.2754C181.118 9.12616 183.298 8.55095 185.986 8.54978C188.986 8.54847 191.479 9.04984 193.465 10.0539L193.078 15.0429L187.606 15.0453L187.634 14.6864C187.671 14.2078 187.531 13.849 187.213 13.6098C186.922 13.3468 186.464 13.2154 185.84 13.2156C184.64 13.2162 184.01 13.5993 183.951 14.365C183.919 14.7717 184.063 15.0827 184.382 15.2979C184.701 15.5131 185.298 15.7163 186.171 15.9073L188.192 16.3012C190.297 16.707 191.762 17.4601 192.589 18.5604C193.415 19.6607 193.761 21.0722 193.628 22.795C193.458 24.9725 192.561 26.6358 190.936 27.785C189.335 28.9342 187.13 29.5094 184.322 29.5107ZM218.642 23.1071L218.185 28.9934L206.809 28.9984L207.266 23.1121L208.778 23.1114L209.236 17.2252C209.297 16.4355 209.174 15.8613 208.865 15.5026C208.559 15.1199 208.07 14.9287 207.398 14.929C205.958 14.9296 205.179 15.6956 205.06 17.227L204.602 23.1133L206.114 23.1126L205.657 28.9989L194.281 29.0038L194.738 23.1176L196.322 23.1169L197.577 6.96552L195.993 6.96621L196.45 1.07994L206.314 1.07562L205.478 11.8432C206.451 10.7421 207.475 9.91618 208.55 9.36539C209.625 8.8146 210.846 8.5389 212.214 8.5383C214.206 8.53743 215.646 9.1589 216.533 10.4027C217.445 11.6465 217.816 13.3572 217.647 15.5346L217.058 23.1078L218.642 23.1071ZM219.691 34.7711L222.012 28.9917L220.176 28.9925L220.633 23.1062L226.249 23.1038L225.792 28.9901L222.787 34.7698L219.691 34.7711ZM239.037 28.9843L239.494 23.098L241.294 23.0972L242.549 6.94584L240.749 6.94663L241.206 1.06035L262.734 1.05093L262.012 10.3469L255.64 10.3497L255.905 6.93999L252.629 6.94143L252.166 12.8995L257.602 12.8971L257.284 16.9888L251.848 16.9912L251.374 23.0928L256.09 23.0907L255.633 28.977L239.037 28.9843ZM285.856 23.0777L285.399 28.964L275.535 28.9683L275.752 26.1687C273.853 28.3708 271.608 29.4725 269.016 29.4736C267.024 29.4745 265.572 28.853 264.661 27.6092C263.774 26.3654 263.414 24.6547 263.584 22.4773L264.172 14.9041L262.588 14.9048L263.045 9.01853L272.909 9.01421L271.995 20.7868C271.933 21.5764 272.056 22.1625 272.362 22.5452C272.694 22.904 273.208 23.0832 273.904 23.0829C274.6 23.0826 275.13 22.9029 275.494 22.5439C275.884 22.1609 276.109 21.5746 276.171 20.7849L276.628 14.8987L274.684 14.8995L275.141 9.01323L285.365 9.00876L284.272 23.0784L285.856 23.0777ZM310.752 23.0668L310.295 28.9531L298.919 28.9581L299.376 23.0718L300.888 23.0711L301.345 17.1848C301.406 16.3952 301.283 15.821 300.975 15.4623C300.669 15.0796 300.179 14.8884 299.507 14.8886C298.067 14.8893 297.288 15.6553 297.169 17.1867L296.712 23.0729L298.224 23.0723L297.767 28.9586L286.391 28.9635L286.848 23.0773L288.432 23.0766L289.067 14.8932L287.483 14.8939L287.941 9.00763L297.805 9.00332L297.587 11.8029C299.486 9.60076 301.732 8.49913 304.324 8.49799C306.316 8.49712 307.755 9.1186 308.643 10.3624C309.554 11.6062 309.925 13.3169 309.756 15.4943L309.168 23.0675L310.752 23.0668Z" fill="black"/>
</svg>
