<svg width="18" height="17" viewBox="0 0 18 17" fill="none" xmlns="http://www.w3.org/2000/svg">
<path d="M18 4.23434C18 3.19694 17.2004 2.35297 16.2176 2.35297H12.7059V1.75689C12.7059 0.853013 12.0092 0.117676 11.1529 0.117676H6.84706C5.99075 0.117676 5.29412 0.853013 5.29412 1.75689V2.35297H1.78235C0.799553 2.35297 0 3.19694 0 4.23434V8.50003H1.05882V15.001C1.05882 16.0384 1.85838 16.8824 2.84118 16.8824H15.1588C16.1416 16.8824 16.9412 16.0384 16.9412 15.001V8.50003H18V4.23434ZM6.35294 1.75689C6.35294 1.46928 6.57459 1.23532 6.84706 1.23532H11.1529C11.4254 1.23532 11.6471 1.46928 11.6471 1.75689V2.35297H6.35294V1.75689ZM4.76471 15.7647V12.9706H10.5882V14.6471H11.6471V12.9706H13.2353V15.7647H4.76471ZM15.8824 15.001C15.8824 15.4221 15.5578 15.7647 15.1588 15.7647H14.2941V11.853H3.70588V15.7647H2.84118C2.44221 15.7647 2.11765 15.4221 2.11765 15.001V8.50003H3.70588V9.05885C3.70588 9.98326 4.41837 10.7353 5.29412 10.7353C6.16987 10.7353 6.88235 9.98326 6.88235 9.05885V8.50003H11.1176V9.05885C11.1176 9.98326 11.8301 10.7353 12.7059 10.7353C13.5817 10.7353 14.2941 9.98326 14.2941 9.05885V8.50003H15.8824V15.001ZM4.76471 9.05885V7.38238H5.82353V9.05885C5.82353 9.36699 5.58604 9.61768 5.29412 9.61768C5.0022 9.61768 4.76471 9.36699 4.76471 9.05885ZM12.1765 9.05885V7.38238H13.2353V9.05885C13.2353 9.36699 12.9978 9.61768 12.7059 9.61768C12.4139 9.61768 12.1765 9.36699 12.1765 9.05885ZM16.9412 7.38238H14.2941V6.26474H11.1176V7.38238H6.88235V6.26474H3.70588V7.38238H1.05882V4.23434C1.05882 3.81321 1.38339 3.47062 1.78235 3.47062H16.2176C16.6166 3.47062 16.9412 3.81321 16.9412 4.23434V7.38238Z" fill="#A4A4AA"/>
</svg>
