<svg width="83" height="17" viewBox="0 0 83 17" fill="none" xmlns="http://www.w3.org/2000/svg">
<g clip-path="url(#clip0_1582_175)">
<path d="M14.5244 6.29861L9.93763 5.57233L7.88174 1.03286C7.72818 0.693881 7.19167 0.693881 7.03812 1.03286L4.98285 5.57233L0.396102 6.29861C0.0193648 6.35855 -0.131082 6.8335 0.133132 7.11384L3.46533 10.6544L2.67766 15.6598C2.61487 16.0574 3.02456 16.3558 3.36338 16.1605L7.46024 13.8135L11.5571 16.1612C11.8928 16.3545 12.3062 16.0619 12.2428 15.6605L11.4551 10.6551L14.7873 7.11448C15.0516 6.8335 14.9005 6.35855 14.5244 6.29861Z" fill="#FED517"/>
</g>
<g clip-path="url(#clip1_1582_175)">
<path d="M31.3134 6.29861L26.7267 5.57233L24.6708 1.03286C24.5172 0.693881 23.9807 0.693881 23.8272 1.03286L21.7719 5.57233L17.1852 6.29861C16.8084 6.35855 16.658 6.8335 16.9222 7.11384L20.2544 10.6544L19.4667 15.6598C19.4039 16.0574 19.8136 16.3558 20.1524 16.1605L24.2493 13.8135L28.3462 16.1612C28.6819 16.3545 29.0953 16.0619 29.0319 15.6605L28.2442 10.6551L31.5764 7.11448C31.8406 6.8335 31.6896 6.35855 31.3134 6.29861Z" fill="#FED517"/>
</g>
<g clip-path="url(#clip2_1582_175)">
<path d="M48.0966 6.29861L43.5099 5.57233L41.454 1.03286C41.3004 0.693881 40.7639 0.693881 40.6104 1.03286L38.5551 5.57233L33.9684 6.29861C33.5916 6.35855 33.4412 6.8335 33.7054 7.11384L37.0376 10.6544L36.2499 15.6598C36.1871 16.0574 36.5968 16.3558 36.9356 16.1605L41.0325 13.8135L45.1294 16.1612C45.4651 16.3545 45.8785 16.0619 45.8151 15.6605L45.0274 10.6551L48.3596 7.11448C48.6238 6.8335 48.4728 6.35855 48.0966 6.29861Z" fill="#FED517"/>
</g>
<g clip-path="url(#clip3_1582_175)">
<path d="M64.8798 6.29861L60.2931 5.57233L58.2372 1.03286C58.0837 0.693881 57.5471 0.693881 57.3936 1.03286L55.3383 5.57233L50.7516 6.29861C50.3748 6.35855 50.2244 6.8335 50.4886 7.11384L53.8208 10.6544L53.0331 15.6598C52.9703 16.0574 53.38 16.3558 53.7188 16.1605L57.8157 13.8135L61.9126 16.1612C62.2483 16.3545 62.6617 16.0619 62.5983 15.6605L61.8106 10.6551L65.1428 7.11448C65.407 6.8335 65.256 6.35855 64.8798 6.29861Z" fill="#FED517"/>
</g>
<g clip-path="url(#clip4_1582_175)">
<path d="M81.667 6.29861L77.0802 5.57233L75.0243 1.03286C74.8708 0.693881 74.3343 0.693881 74.1807 1.03286L72.1254 5.57233L67.5387 6.29861C67.1619 6.35855 67.0115 6.8335 67.2757 7.11384L70.6079 10.6544L69.8202 15.6598C69.7575 16.0574 70.1671 16.3558 70.506 16.1605L74.6028 13.8135L78.6997 16.1612C79.0354 16.3545 79.4488 16.0619 79.3854 15.6605L78.5977 10.6551L81.9299 7.11448C82.1941 6.8335 82.0431 6.35855 81.667 6.29861Z" fill="#FED517"/>
</g>
<defs>
<clipPath id="clip0_1582_175">
<rect y="0.766541" width="14.9203" height="15.4667" fill="white"/>
</clipPath>
<clipPath id="clip1_1582_175">
<rect x="16.7891" y="0.766541" width="14.9203" height="15.4667" fill="white"/>
</clipPath>
<clipPath id="clip2_1582_175">
<rect x="33.5723" y="0.766541" width="14.9203" height="15.4667" fill="white"/>
</clipPath>
<clipPath id="clip3_1582_175">
<rect x="50.3555" y="0.766541" width="14.9203" height="15.4667" fill="white"/>
</clipPath>
<clipPath id="clip4_1582_175">
<rect x="67.1426" y="0.766541" width="14.9203" height="15.4667" fill="white"/>
</clipPath>
</defs>
</svg>
